<svg id="Capa_1" enable-background="new 0 0 508.133 508.133" height="512" viewBox="0 0 508.133 508.133" width="512" xmlns="http://www.w3.org/2000/svg"><g><path d="m267.153 337.437c4.142 0 7.5-3.358 7.5-7.5v-93.908c4.756-2.497 9.073-5.859 12.696-9.984l134.1-152.691c2.183-2.486 3.313-5.557 3.312-8.686-.001-1.846-.396-3.712-1.201-5.491-2.03-4.484-6.201-7.378-11.039-7.731 1.582-13.834 1.271-29.817 1.094-38.736l-.036-1.861c-.065-3.551-1.848-6.875-4.768-8.893-2.92-2.018-6.661-2.509-10.006-1.314l-1.763.628c-20.787 7.398-41.036 15.488-51.35 24.882-6.733-7.344-13.708-14.048-18.215-18.381l-1.34-1.29c-2.558-2.465-6.169-3.555-9.661-2.917s-6.485 2.936-8.005 6.146l-.802 1.69c-4.284 9.019-12.195 25.684-16.204 40.008h-138.496l-18.337-21.631c-2.679-3.159-7.411-3.55-10.571-.872-3.16 2.679-3.55 7.411-.872 10.571l10.115 11.932h-36.685c-5.26 0-9.875 2.977-12.044 7.769-.805 1.778-1.2 3.645-1.201 5.491-.001 3.129 1.128 6.2 3.312 8.686l134.1 152.691c3.623 4.125 7.94 7.487 12.696 9.984v207.916c0 6.685-3.227 13.025-8.631 16.96l-42.757 31.129c-3.153 2.296-4.435 6.102-3.265 9.696 1.247 3.83 5.055 6.403 9.476 6.403h131.529c4.421 0 8.229-2.573 9.476-6.403 1.169-3.594-.112-7.4-3.266-9.696l-42.757-31.128c-5.405-3.935-8.631-10.275-8.631-16.96v-84.008c0-4.142-3.358-7.5-7.5-7.5s-7.5 3.358-7.5 7.5v84.008c0 11.465 5.534 22.339 14.803 29.087l27.61 20.101h-95.999l27.61-20.101c9.27-6.748 14.803-17.622 14.803-29.087v-203.204c1.843.234 3.707.368 5.587.368 1.879 0 3.743-.134 5.585-.368v89.195c-.002 4.142 3.356 7.5 7.498 7.5zm131.532-320.824c.158 9.295.219 23.287-1.27 34.796h-47.936c.41-4.33 1.877-8.476 4.312-12 5.674-8.213 32.259-18.247 44.894-22.796zm-79.008 4.474c4.889 4.725 11.485 11.237 17.449 17.98-1.524 3.923-2.434 8.09-2.691 12.343h-27.311c3.429-10.623 8.796-22.36 12.553-30.323zm-173.657 45.322 21.14 24.938h-44.71l-21.902-24.938zm108.047 159.701c-8.427 0-16.451-3.632-22.012-9.964l-96.431-109.799h44.252l21.089 24.878c-3.553 4.731-5.661 10.606-5.661 16.964 0 15.608 12.698 28.306 28.306 28.306 4.696 0 9.125-1.156 13.028-3.189l18.922 22.321c1.484 1.75 3.597 2.65 5.725 2.65 1.713 0 3.437-.584 4.846-1.779 3.16-2.679 3.55-7.411.872-10.571l-19.349-22.825c2.698-4.334 4.263-9.444 4.263-14.915 0-15.608-12.698-28.306-28.306-28.306-3.816 0-7.456.764-10.782 2.139l-13.288-15.675h31.445c4.142 0 7.5-3.358 7.5-7.5s-3.358-7.5-7.5-7.5h-44.16l-21.14-24.938h241.9l-21.902 24.938h-124.699c-4.142 0-7.5 3.358-7.5 7.5s3.358 7.5 7.5 7.5h111.523l-96.431 109.799c-5.56 6.335-13.583 9.966-22.01 9.966zm-30.457-64.614c-7.337 0-13.306-5.969-13.306-13.306s5.969-13.306 13.306-13.306 13.306 5.969 13.306 13.306-5.969 13.306-13.306 13.306z"/></g></svg>