<svg height="512pt" viewBox="0 -36 512 512" width="512pt" xmlns="http://www.w3.org/2000/svg"><path d="m450 390c0 5.523438-4.476562 10-10 10s-10-4.476562-10-10 4.476562-10 10-10 10 4.476562 10 10zm0 0"/><path d="m326 390c0 5.523438-4.476562 10-10 10s-10-4.476562-10-10 4.476562-10 10-10 10 4.476562 10 10zm0 0"/><path d="m206 390c0 5.523438-4.476562 10-10 10s-10-4.476562-10-10 4.476562-10 10-10 10 4.476562 10 10zm0 0"/><path d="m82 390c0 5.523438-4.476562 10-10 10s-10-4.476562-10-10 4.476562-10 10-10 10 4.476562 10 10zm0 0"/><path d="m385.359375 47.414062c-17.917969-5.109374-39.367187-3.757812-56.789063 4.4375l-17.097656 8.050782c-8.84375-16.375-28.9375-19.28125-45.472656-19.789063v-.113281c0-11.027344 8.972656-20 20-20 5.523438 0 10-4.476562 10-10s-4.476562-10-10-10c-22.054688 0-40 17.945312-40 40v.160156c-29.171875 1.03125-50 9.78125-50 39.839844 0 9.5 2.273438 20.457031 6.359375 31.132812l-196.515625 89.769532c-3.542969 1.621094-5.84375 5.214844-5.84375 9.097656v220c0 5.523438 4.476562 10 10 10h492c5.523438 0 10-4.476562 10-10v-220c0-74.425781-53.027344-141.546875-126.640625-162.585938zm-48.273437 22.535157c12.316406-5.796875 28.800781-7.289063 42.785156-3.304688 62.644531 17.90625 107.351562 71.894531 111.765625 133.355469h-115.636719c-5.523438 0-10 4.476562-10 10s4.476562 10 10 10h116v60.117188c-5.492188-1.65625-10.710938-4.503907-14.761719-8.195313-21.867187-19.941406-53.609375-19.941406-75.476562 0-14.285157 13.023437-34.238281 13.023437-48.523438 0-21.976562-20.039063-51.503906-20.039063-73.476562 0-14.351563 13.082031-32.175781 13.082031-46.523438 0-21.976562-20.039063-51.503906-20.039063-73.476562 0-14.285157 13.023437-34.238281 13.023437-48.523438 0-21.867187-19.941406-53.609375-19.941406-75.472656-.003906-4.269531 3.890625-9.914063 6.84375-15.765625 8.453125v-60.371094h276c5.523438 0 10-4.476562 10-10s-4.476562-10-10-10h-240.042969l155.226563-70.910156c11.992187 19.519531 28.292968 30.910156 44.816406 30.910156 34.171875 0 60-47.46875 60-80 0-.039062-.003906-.082031-.003906-.121094zm-317.085938 230.933593c10.765625-1.886718 21.214844-6.875 29.238281-14.183593 14.285157-13.027344 34.238281-13.027344 48.523438 0 21.867187 19.941406 53.609375 19.941406 75.476562 0 14.347657-13.085938 32.175781-13.085938 46.523438 0 21.972656 20.039062 51.5 20.039062 73.476562 0 14.347657-13.085938 32.175781-13.085938 46.523438 0 21.867187 19.941406 53.609375 19.941406 75.476562 0 14.285157-13.027344 34.238281-13.027344 48.523438 0 7.710937 7.03125 17.804687 11.953125 28.238281 13.988281v39.429688c-5.492188-1.65625-10.710938-4.503907-14.761719-8.195313-21.867187-19.941406-53.609375-19.941406-75.476562 0-14.285157 13.023437-34.238281 13.023437-48.523438 0-21.976562-20.039063-51.503906-20.039063-73.476562 0-14.351563 13.082031-32.175781 13.082031-46.523438 0-21.976562-20.039063-51.503906-20.039063-73.476562 0-14.285157 13.023437-34.238281 13.023437-48.523438 0-21.867187-19.941406-53.609375-19.941406-75.472656-.003906-4.269531 3.890625-9.914063 6.84375-15.765625 8.453125zm236-240.882812c28.65625 0 37.925781 3.554688 39.671875 15.21875v.007812c3.320313 22.144532-17.65625 64.773438-39.671875 64.773438-20.8125 0-40-37.058594-40-60 0-14.761719 6.042969-20 40-20zm-236 360v-59.117188c10.765625-1.886718 21.214844-6.875 29.238281-14.183593 14.285157-13.027344 34.238281-13.027344 48.523438 0 21.867187 19.941406 53.609375 19.941406 75.476562 0 14.347657-13.085938 32.175781-13.085938 46.523438 0 21.972656 20.039062 51.5 20.039062 73.476562 0 14.347657-13.085938 32.175781-13.085938 46.523438 0 21.867187 19.941406 53.609375 19.941406 75.476562 0 14.285157-13.027344 34.238281-13.027344 48.523438 0 7.710937 7.03125 17.804687 11.953125 28.238281 13.988281v59.3125zm0 0"/><path d="m346 210c0 5.523438-4.476562 10-10 10s-10-4.476562-10-10 4.476562-10 10-10 10 4.476562 10 10zm0 0"/></svg>