<svg id="Capa_1" enable-background="new 0 0 512 512" height="512" viewBox="0 0 512 512" width="512" xmlns="http://www.w3.org/2000/svg"><g><path d="m506.319 355.795c-.897-.454-1.869-.776-2.886-.944-.957-.16-1.843-.182-2.665-.098-5.652.213-37.384 1.014-85.739-5.26 26.553-31.266 50.618-70.682 71.693-117.473 12.722-28.548 19.895-49.696 22.959-58.727.487-1.438.989-2.915 1.245-3.617 1.663-3.291 1.426-7.366-.914-10.498-2.504-3.352-6.342-4.366-10.571-3.686-.179.032-3.142.563-4.396.807-14.863 2.886-31.687 7.755-50.099 14.506-30.277 11.2-72.681 30.506-112.22 61.078-.301-14.007-1.602-28.963-3.881-44.564-.35-2.39-1.561-4.569-3.391-6.14-2.181-1.87-5.102-2.72-7.963-2.31-2.641.39-4.972 1.779-6.573 3.93-1.6 2.14-2.37 4.78-1.98 7.42 1.893 12.947 3.011 25.399 3.435 37.153.07 1.945.512 9.15.509 15.565-.002 5.626-.446 10.66-.439 10.801-1.406 28.803-7.194 51.414-17.7 69.08-2.823 4.747-1.262 10.884 3.487 13.706 1.603.952 3.364 1.406 5.103 1.406 3.412 0 6.738-1.747 8.608-4.892 11.789-19.823 18.435-44.396 20.297-74.979 40.881-35.102 87.432-56.581 119.618-68.487 12.463-4.569 24.104-8.217 34.779-10.903-3.854 10.765-9.766 26.312-18.172 45.176-21.538 47.818-46.184 87.484-73.357 118.086-2.407 2.71-13.164 13.426-16.405 15.877-2.966 2.243-6.041 4.353-9.067 6.428-3.081 2.113-6.266 4.299-9.279 6.584-4.401 3.339-5.261 9.612-1.92 14.012 1.968 2.592 4.953 3.955 7.976 3.955 2.107 0 4.233-.664 6.041-2.035 2.631-1.997 5.483-3.953 8.503-6.024 5.581-3.829 11.762-8.091 17.515-13.354 33.041 4.909 59.923 6.694 78.086 7.272-7.399 6.154-15.379 11.947-23.877 17.329-.036.022-.071.045-.107.068-24.453 15.923-63.357 34.238-101.207 39.46-4.25-4.863-9.331-10.118-13.462-13.87-4.089-3.714-10.416-3.411-14.131.679-3.715 4.088-3.411 10.412.678 14.126 3.191 2.897 7.157 6.963 10.633 10.847 1.562 1.746 8.808 10.915 10.868 13.852 6.864 9.788 12.247 19.385 16.295 27.562-27.136-9.604-48.176-20.312-62.691-31.919-5.747-4.73-10.411-9.606-13.492-14.353-1.844-2.842-5.003-4.427-8.392-4.427h-43.523c-3.389 0-6.548 1.586-8.393 4.428-3.079 4.745-7.742 9.685-13.486 14.413-14.512 11.607-35.551 22.282-62.695 31.889 4.01-8.098 9.329-17.6 16.099-27.295 2.116-3.031 10.624-13.574 12.954-16.1 3.137-3.399 6.476-6.838 8.744-8.899 4.088-3.716 4.389-10.04.672-14.127-3.717-4.085-10.044-4.386-14.131-.672-3.648 3.315-9.125 9.087-13.384 13.882-37.872-5.208-76.812-23.539-101.282-39.473-.035-.023-.071-.047-.107-.07-8.501-5.382-16.484-11.178-23.884-17.333 18.17-.58 45.081-2.365 78.093-7.268 5.755 5.266 11.938 9.53 17.522 13.36 3.017 2.069 5.867 4.024 8.497 6.019 1.808 1.372 3.933 2.035 6.04 2.035 3.022 0 6.009-1.364 7.977-3.956 3.34-4.399 2.479-10.673-1.922-14.011-3.01-2.283-15.84-11.083-19.012-13.519-3-2.303-15.112-14.608-18.383-18.386-26.128-30.175-49.874-68.804-70.698-115.036-8.419-18.89-14.335-34.445-18.191-45.212 10.67 2.685 22.301 6.329 34.749 10.893 32.216 11.918 78.766 33.402 119.647 68.505 1.815 30.492 8.463 55.062 20.303 74.972 1.87 3.145 5.196 4.892 8.608 4.892 1.738 0 3.5-.454 5.102-1.406 4.749-2.822 6.31-8.958 3.487-13.706-9.314-15.662-14.843-35.094-16.946-59.167-.306-3.5-1.021-20.278-1.002-25.08-.118-69.478 26.513-141.671 34.71-162.185 8.602-21.807 16.475-37.191 22.097-47.078 4.603 8.093 10.719 19.872 17.509 35.841 1.505 3.539 7.827 19.504 9.396 23.774 1.865 5.078 3.685 10.292 5.445 15.605 1.36 4.091 5.18 6.851 9.492 6.851 1.07 0 2.13-.17 3.15-.51 2.541-.851 4.602-2.63 5.792-5.011 1.2-2.39 1.4-5.1.55-7.64-1.891-5.694-3.852-11.296-5.865-16.757-1.55-4.205-7.878-20.172-9.399-23.757-7.211-17-13.767-29.603-18.704-38.286-3.5-6.155-8.204-13.479-8.369-13.74-1.656-3.457-5.153-5.675-9.008-5.68-.005 0-.009 0-.009 0-3.861 0-7.364 2.215-9.024 5.674-.165.261-4.849 7.553-8.332 13.674-5.98 10.508-14.342 26.78-23.368 49.662-8.257 20.665-34.622 91.995-36.107 162.857-39.534-30.565-81.94-49.863-112.238-61.072-18.476-6.772-35.365-11.656-50.269-14.534-1.192-.23-4.028-.737-4.205-.77-3.911-.804-8.075.342-10.576 3.7-2.331 3.131-2.109 6.767-.905 10.484.255.7.756 2.178 1.243 3.613 3.063 9.03 10.237 30.178 22.978 58.767 21.062 46.762 45.124 86.172 71.676 117.437-48.31 6.264-80.135 5.467-85.746 5.26-.817-.081-1.699-.06-2.651.098-1.462.24-2.83.799-4.02 1.612-2.472 1.673-4.146 4.419-4.346 7.637-.203 3.265 1.313 5.607 3.507 8.24.135.141 3.029 3.132 4.332 4.425 11.844 11.755 25.451 22.528 40.518 32.072 23.972 15.601 60.958 33.348 98.474 40.671-13.653 20.406-24.599 48.007-24.599 48.007-.316.877-.778 3.357-.652 4.64.441 4.492 3.838 8.133 8.29 8.885.475.081 2.8.274 5.754-.728.498-.16 7.284-2.272 9.754-3.077 34.493-11.243 61.155-24.286 79.334-38.816.347 12.777.728 24.155 1.139 33.979.224 5.348 4.62 9.57 9.974 9.582 6.686.014 13.374.021 20.063.021 6.688 0 13.376-.008 20.062-.021 5.354-.012 9.75-4.234 9.974-9.582.411-9.807.791-21.163 1.138-33.915 19.487 15.575 48.715 29.407 86.878 41.176.987.305 1.744.519 2.24.679 1.742.56 3.103.825 4.193.825.762 0 1.308-.083 1.501-.114 4.465-.74 7.876-4.387 8.32-8.888.071-.72.175-3.014-.985-5.395.118.246-.51-1.515-.962-2.672-3.649-9.355-11.154-26.428-23.303-44.586 37.52-7.324 74.508-25.072 98.479-40.673 16.104-10.204 30.542-21.811 42.943-34.521.474-.486 1.766-1.832 1.901-1.973 2.316-1.969 3.706-4.963 3.51-8.223-.23-3.7-2.394-6.776-5.481-8.321zm-239.994 136.199c-6.945.009-13.893.009-20.838 0-.404-11.096-.774-23.812-1.107-37.994h23.053c-.334 14.182-.704 26.898-1.108 37.994z"/><ellipse cx="310.374" cy="144.62" rx="10.004" ry="10"/></g></svg>