<?xml version="1.0" encoding="iso-8859-1"?>
<!-- Generator: Adobe Illustrator 19.0.0, SVG Export Plug-In . SVG Version: 6.00 Build 0)  -->
<svg version="1.1" id="Layer_1" xmlns="http://www.w3.org/2000/svg" xmlns:xlink="http://www.w3.org/1999/xlink" x="0px" y="0px"
	 viewBox="0 0 512.002 512.002" style="enable-background:new 0 0 512.002 512.002;" xml:space="preserve">
<g>
	<g>
		<g>
			<path d="M243.654,188.633c-4.215,2.108-5.931,7.228-3.823,11.443c1.502,2.995,4.514,4.719,7.646,4.719
				c1.28,0,2.586-0.29,3.806-0.896c0.887-0.452,21.786-11.153,21.786-33.237c0-12.066-6.374-18.449-11.034-23.1
				c-4.181-4.181-6.033-6.238-6.033-11.034s1.852-6.852,6.033-11.034c4.659-4.651,11.034-11.034,11.034-23.1
				c0-22.084-20.898-32.785-21.786-33.229c-4.173-2.082-9.267-0.401-11.392,3.772c-2.133,4.19-0.452,9.31,3.712,11.469
				c0.119,0.06,12.399,6.536,12.399,17.988c0,4.796-1.852,6.852-6.033,11.034c-4.659,4.651-11.034,11.034-11.034,23.1
				c0,12.066,6.374,18.449,11.034,23.1c4.181,4.181,6.033,6.238,6.033,11.034C256.002,182.114,243.723,188.59,243.654,188.633z"/>
			<path d="M187.735,187.729c0,11.375-12.109,17.835-12.399,17.988c-4.173,2.125-5.871,7.228-3.772,11.426
				c1.502,2.995,4.514,4.719,7.646,4.719c1.28,0,2.586-0.29,3.806-0.896c0.887-0.452,21.786-11.153,21.786-33.237
				c0-12.066-6.374-18.449-11.034-23.1c-4.181-4.181-6.033-6.238-6.033-11.034c0-11.452,12.271-17.929,12.348-17.963
				c4.215-2.108,5.931-7.236,3.814-11.452c-2.099-4.215-7.219-5.939-11.443-3.814c-0.887,0.444-21.786,11.145-21.786,33.229
				c0,12.066,6.374,18.449,11.034,23.1C185.884,180.876,187.735,182.933,187.735,187.729z"/>
			<path d="M324.269,187.729c0,11.375-12.1,17.835-12.39,17.988c-4.181,2.125-5.879,7.228-3.78,11.426
				c1.502,2.995,4.514,4.719,7.646,4.719c1.28,0,2.586-0.29,3.806-0.896c0.896-0.452,21.786-11.153,21.786-33.237
				c0-12.066-6.374-18.449-11.034-23.1c-4.181-4.181-6.033-6.238-6.033-11.034c0-11.452,12.271-17.929,12.348-17.963
				c4.215-2.108,5.931-7.236,3.814-11.452c-2.116-4.215-7.236-5.922-11.443-3.814c-0.896,0.444-21.786,11.145-21.786,33.229
				c0,12.066,6.374,18.449,11.034,23.1C322.417,180.876,324.269,182.933,324.269,187.729z"/>
			<path d="M119.469,273.062c5.837,0,11.204,2.987,14.379,7.987c2.432,3.831,7.441,5.086,11.418,2.85
				c6.69-3.789,14.464-2.671,19.806,2.244c2.423,2.219,5.897,2.842,8.943,1.638c3.038-1.22,5.12-4.07,5.342-7.347
				c0.614-8.917,8.038-15.906,16.913-15.906c5.726,0,11.042,2.867,14.217,7.663c3.166,4.779,11.068,4.779,14.225,0
				c5.82-8.764,19.396-9.993,26.692-2.142c2.022,2.176,5.018,3.157,7.936,2.56c2.901-0.58,5.308-2.628,6.332-5.41
				c2.466-6.707,8.866-11.204,15.932-11.204c9.404,0,17.067,7.654,17.058,16.853c-0.026,0.179-0.119,0.998-0.137,1.178
				c-0.222,2.884,1.033,5.692,3.345,7.441c2.295,1.758,5.35,2.227,8.064,1.237c7.381-2.662,13.688-0.538,18.27,4.412
				c2.022,2.176,5.026,3.149,7.936,2.56c2.901-0.58,5.308-2.628,6.332-5.41c2.466-6.707,8.866-11.204,15.932-11.204
				c7.629,0,14.37,5.197,16.384,12.638c0.631,2.355,2.253,4.326,4.429,5.41c2.176,1.092,4.719,1.186,6.989,0.282
				c7.765-3.132,16.393-0.102,20.71,6.716c2.423,3.84,7.441,5.111,11.409,2.859c7.33-4.13,15.923-2.338,21.043,3.362
				c1.681,1.877,4.019,2.833,6.349,2.833c2.039,0,4.079-0.717,5.7-2.184c3.507-3.149,3.806-8.542,0.657-12.049
				c-8.747-9.737-22.912-13.739-35.379-9.779c-7.373-7.467-18.099-11.247-28.663-9.779c-5.948-10.53-17.195-17.374-29.628-17.374
				c-10.402,0-20.087,4.838-26.453,12.698c-5.265-2.876-11.247-4.36-17.289-4.147c-3.789-14.712-17.178-25.617-33.058-25.617
				c-10.394,0-20.062,4.821-26.428,12.663c-11.631-6.374-27.221-4.949-37.572,3.371c-5.973-4.804-13.457-7.501-21.333-7.501
				c-13.355,0-25.071,7.851-30.618,19.302c-6.955-2.671-14.822-2.97-22.024-0.691c-6.34-6.4-14.95-10.078-24.158-10.078
				c-4.71,0-8.533,3.823-8.533,8.533S114.758,273.062,119.469,273.062z"/>
			<path d="M503.469,324.262H8.535c-4.71,0-8.533,3.823-8.533,8.533c0,23.526,19.14,42.667,42.667,42.667h9.003
				c4.258,38.349,36.864,68.267,76.331,68.267h256c39.467,0,72.064-29.918,76.322-68.267h9.011c23.526,0,42.667-19.14,42.667-42.667
				C512.002,328.085,508.188,324.262,503.469,324.262z M469.335,358.395h-17.067c-4.719,0-8.533,3.823-8.533,8.533
				c0,32.939-26.803,59.733-59.733,59.733h-256c-30.046,0-54.972-22.289-59.127-51.2h349.261c4.719,0,8.533-3.823,8.533-8.533
				s-3.814-8.533-8.533-8.533H42.669c-11.128,0-20.617-7.134-24.141-17.067h474.948
				C489.952,351.261,480.463,358.395,469.335,358.395z"/>
			<path d="M5.173,255.304l119.467,51.2c1.092,0.469,2.236,0.7,3.354,0.7c3.319,0,6.468-1.946,7.851-5.18
				c1.86-4.335-0.154-9.353-4.48-11.204l-119.467-51.2c-4.335-1.86-9.361,0.154-11.204,4.48
				C-1.167,248.435,0.847,253.452,5.173,255.304z"/>
		</g>
	</g>
</g>
<g>
</g>
<g>
</g>
<g>
</g>
<g>
</g>
<g>
</g>
<g>
</g>
<g>
</g>
<g>
</g>
<g>
</g>
<g>
</g>
<g>
</g>
<g>
</g>
<g>
</g>
<g>
</g>
<g>
</g>
</svg>
