<svg id="Capa_1" enable-background="new 0 0 513.264 513.264" height="512" viewBox="0 0 513.264 513.264" width="512" xmlns="http://www.w3.org/2000/svg"><g><path d="m459.713 117.775c-4.443-4.686-10.695-7.375-17.152-7.377l-280.12-.131c-.004 0-.008 0-.012 0-6.541 0-12.625 2.609-17.135 7.347-4.512 4.741-6.817 10.952-6.49 17.489l17.713 354.779c.627 12.557 10.967 22.429 23.538 22.476l243.732.907h.091c12.592 0 22.96-9.83 23.621-22.415l18.673-355.554c.339-6.45-2.014-12.836-6.459-17.521zm-8.519 16.733-17.452 332.312h-199.367c-4.143 0-7.5 3.358-7.5 7.5s3.357 7.5 7.5 7.5h198.578l-.433 8.242c-.242 4.605-4.036 8.202-8.644 8.202-.012 0-.022 0-.033 0l-243.733-.907c-4.6-.017-8.383-3.629-8.613-8.224l-.365-7.313h31.281c4.143 0 7.5-3.358 7.5-7.5s-3.357-7.5-7.5-7.5h-32.03l-16.599-332.466c-.119-2.392.725-4.665 2.375-6.399 1.65-1.733 3.876-2.688 6.27-2.688h.004l280.12.131c2.398.001 4.627.96 6.276 2.699 1.651 1.74 2.49 4.016 2.365 6.411z"/><path d="m427.963 140.391-27.546-.013c-.002 0-.003 0-.004 0-4.141 0-7.498 3.355-7.5 7.497s3.354 7.501 7.496 7.503l19.646.009-10.324 196.587c-2.402 45.749-40.17 81.585-85.982 81.585h-43.079c-45.93 0-83.702-35.934-85.994-81.807l-9.81-196.475 183.582.086h.004c4.141 0 7.498-3.355 7.5-7.497s-3.354-7.501-7.496-7.503l-191.47-.09c-.002 0-.003 0-.004 0-2.054 0-4.017.842-5.433 2.329-1.417 1.488-2.16 3.493-2.058 5.545l10.204 204.353c2.69 53.865 47.044 96.059 100.975 96.059h43.079c53.793 0 98.141-42.08 100.961-95.798l10.739-204.477c.108-2.054-.632-4.063-2.048-5.555-1.415-1.492-3.381-2.337-5.438-2.338z"/><path d="m121.701 46.146c-17.161 11.252-30.683 28.063-38.074 47.335-6.75 17.602-8.3 36.347-4.594 54.646l-13.933 3.924c-.062.018-.21.059-.396-.054-.149-.09-.243-.229-.281-.413-5.813-28.089-.805-57.124 14.097-81.755 14.973-24.748 38.562-42.698 66.42-50.543 27.856-7.844 57.346-4.843 83.035 8.455 25.527 13.215 44.93 35.323 54.616 62.175.028.095.058.189.089.283 1.31 3.93 5.554 6.053 9.487 4.744 3.869-1.29 5.987-5.428 4.801-9.306-.048-.167-.102-.342-.187-.584-10.985-30.569-32.972-55.653-61.911-70.634-29.08-15.054-62.463-18.453-93.997-9.572-31.535 8.881-58.237 29.201-75.188 57.217-16.868 27.88-22.534 60.751-15.954 92.559.876 4.236 3.492 7.951 7.179 10.192 2.444 1.486 5.247 2.252 8.066 2.252 1.406 0 2.816-.19 4.188-.577l49.652-13.982c3.987-1.123 6.309-5.265 5.186-9.252-1.122-3.986-5.266-6.309-9.252-5.186l-21.229 5.978c-2.855-15.154-1.473-30.636 4.11-45.195 6.273-16.358 17.742-30.622 32.293-40.163 3.464-2.271 4.431-6.92 2.16-10.384-2.271-3.465-6.921-4.431-10.383-2.16z"/><path d="m218.038 39.606c-20.021-9.519-42.899-12.026-64.428-7.056-4.036.931-6.553 4.958-5.621 8.994s4.958 6.552 8.994 5.622c18.242-4.211 37.639-2.085 54.613 5.986 16.823 8 30.646 21.501 38.925 38.019 1.315 2.625 3.962 4.141 6.711 4.141 1.129 0 2.276-.256 3.354-.796 3.703-1.856 5.2-6.362 3.345-10.065-9.768-19.492-26.066-35.418-45.893-44.845z"/></g></svg>