<svg id="Capa_1" enable-background="new 0 0 510.64 510.64" height="512" viewBox="0 0 510.64 510.64" width="512" xmlns="http://www.w3.org/2000/svg"><g><path d="m418.866 7.232c-4.214-4.596-10.206-7.232-16.441-7.232h-35.111c-4.143 0-7.5 3.358-7.5 7.5s3.357 7.5 7.5 7.5h35.111c2.071 0 3.983.841 5.383 2.368s2.072 3.504 1.893 5.568l-28.656 329.186c-.359 4.126 2.694 7.763 6.821 8.122.222.02.44.029.659.029 3.848 0 7.123-2.945 7.463-6.85l28.656-329.186c.541-6.211-1.565-12.409-5.778-17.005z"/><path d="m386.395 377.144c-4.115-.366-7.763 2.694-8.122 6.821l-5.327 61.183h-50.103c-4.143 0-7.5 3.358-7.5 7.5s3.357 7.5 7.5 7.5h49.479v33c0 1.374-1.118 2.492-2.492 2.492h-229.02c-1.374 0-2.492-1.118-2.492-2.492v-33h155.624c4.143 0 7.5-3.358 7.5-7.5s-3.357-7.5-7.5-7.5h-156.249l-36.754-422.211c-.18-2.064.493-4.042 1.893-5.568 1.4-1.527 3.312-2.368 5.383-2.368h227.137c4.143 0 7.5-3.358 7.5-7.5s-3.357-7.5-7.5-7.5h-227.138c-6.234 0-12.227 2.636-16.44 7.232s-6.32 10.794-5.779 17.005l37.322 428.736v40.174c0 9.645 7.847 17.492 17.492 17.492h229.02c9.646 0 17.492-7.847 17.492-17.492v-40.174l5.895-67.708c.36-4.127-2.694-7.763-6.821-8.122z"/><path d="m164.621 408.551-14.172-162.798c-.359-4.126-3.985-7.185-8.122-6.821-4.126.359-7.181 3.996-6.821 8.122l14.172 162.797c.723 8.318 7.565 14.59 15.915 14.59h179.456c8.348 0 15.189-6.272 15.915-14.59l22.861-262.629c.688-7.904-4.4-15.03-12.101-16.945-24.107-5.995-49.508-2.95-71.518 8.575l-9.748 5.104c-23.252 12.175-50.051 15.256-75.458 8.677l-63.405-16.42c-6.035-1.563-12.478-.092-17.237 3.933-4.759 4.026-7.277 10.136-6.736 16.346l5.101 58.6c.359 4.126 3.996 7.186 8.122 6.821 4.126-.359 7.181-3.996 6.821-8.122l-5.101-58.6c-.165-1.896.857-3.065 1.48-3.593.624-.528 1.945-1.343 3.789-.864l63.405 16.42c29.019 7.514 59.624 3.995 86.177-9.909l9.747-5.103c18.754-9.821 40.396-12.417 60.941-7.307.494.123.82.58.776 1.087l-22.86 262.628c-.044.508-.462.892-.972.892h-179.456c-.509-.001-.927-.383-.971-.891z"/><path d="m203.159 324.685c0 17.978 14.626 32.604 32.605 32.604 17.978 0 32.604-14.626 32.604-32.604 0-17.979-14.626-32.605-32.604-32.605s-32.605 14.627-32.605 32.605zm50.21 0c0 9.707-7.897 17.604-17.604 17.604-9.708 0-17.605-7.897-17.605-17.604 0-9.708 7.897-17.605 17.605-17.605 9.706 0 17.604 7.898 17.604 17.605z"/><path d="m281.349 276.327c13.694 0 24.835-11.141 24.835-24.835s-11.141-24.835-24.835-24.835-24.835 11.141-24.835 24.835 11.141 24.835 24.835 24.835zm0-34.67c5.423 0 9.835 4.412 9.835 9.835s-4.412 9.835-9.835 9.835-9.835-4.412-9.835-9.835 4.412-9.835 9.835-9.835z"/></g></svg>