<svg xmlns="http://www.w3.org/2000/svg" width="1039" xmlns:xlink="http://www.w3.org/1999/xlink" height="733" xmlns:ev="http://www.w3.org/2001/xml-events" viewBox="0 0 1039 733"><defs/><g transform="translate(5.5,5.5)" id="page1"><rect x="0" y="0" width="1029" height="723" fill="#ffffff"/><path stroke-width="1" transform="translate(62.042000,215.204000)" id="shape1" d="M906.0,292.6L906.0,.0L.0,.0L.0,292.6L906.0,292.6z" fill-rule="nonzero" stroke="#ffffff" fill="#ffffff"/><path stroke-width="1" transform="translate(69.368000,64.023000)" id="shape2" d="M741.6,443.8L741.6,.0L.0,.0L.0,443.8L741.6,443.8z" fill-rule="nonzero" stroke="#ffffff" fill="#ffffff"/><path stroke-width="1" transform="translate(359.704000,508.901200)" id="shape3" d="M460.9,152.0L460.9,.0L.0,.0L.0,152.0L460.9,152.0z" fill-rule="nonzero" stroke="#ffffff" fill="#ffffff"/><g transform="matrix(1.000000,0.000000,-0.000000,1.000000,60.957000,66.696850)" id="shape4"><path d="M.0,-7.6L-7.6,-15.1L914.6,-15.1L907.1,-7.6L899.5,.0L758.2,.0L758.2,-0.0L754.4,-7.6L750.6,-0.0L750.6,.0L609.0,.0L609.0,-0.0L605.2,-7.6L601.4,-0.0L601.4,.0L456.4,.0L456.4,-0.0L452.6,-7.6L448.8,-0.0L448.8,.0L306.3,.0L306.3,-0.0L302.5,-7.6L298.7,-0.0L298.7,.0L7.6,.0L.0,-7.6z" fill-rule="nonzero" fill="#7e7e7e"/><path stroke-width="1" d="M7.6,.0L899.5,.0M914.6,-15.1L-7.6,-15.1" stroke="#7e7e7e" fill="none"/></g><g transform="matrix(0.000000,1.000000,-1.000000,0.000000,960.483950,59.138000)" id="shape5"><path d="M-7.6,-15.1L612.3,-15.1L597.2,.0L457.3,.0L457.3,-0.0L453.5,-7.6L449.8,-0.0L449.8,.0L306.8,.0L303.1,-7.6L299.3,.0L7.6,.0L-7.6,-15.1z" fill-rule="nonzero" fill="#7e7e7e"/><path stroke-width="1" d="M7.6,.0L597.2,.0M612.3,-15.1L-7.6,-15.1" stroke="#7e7e7e" fill="none"/></g><g transform="matrix(1.000000,0.000000,-0.000000,1.000000,60.956000,671.421050)" id="shape6"><path d="M7.6,-15.1L298.5,-15.1L302.3,-7.6L306.1,-15.1L450.3,-15.1L454.1,-7.6L457.9,-15.1L600.4,-15.1L604.1,-7.6L607.9,-15.1L752.1,-15.1L755.9,-7.6L759.7,-15.1L899.5,-15.1L914.6,.0L-7.6,.0L7.6,-15.1M302.3,-158.7L291.3,-152.8L291.6,-150.6L302.3,-158.7z" fill-rule="nonzero" fill="#7e7e7e"/><path stroke-width="1" d="M-7.6,.0L914.6,-0.0M899.5,-15.1L7.6,-15.1" stroke="#7e7e7e" fill="none"/></g><g transform="matrix(0.000000,1.000000,-1.000000,0.000000,53.397650,59.138000)" id="shape7"><path d="M-7.6,-0.0L612.3,.0L604.7,-7.6L597.2,-15.1L7.6,-15.1L.0,-7.6L-7.6,-0.0z" fill-rule="nonzero" fill="#7e7e7e"/><path stroke-width="1" d="M-7.6,.0L612.3,.0M597.2,-15.1L7.6,-15.1" stroke="#7e7e7e" fill="none"/></g><g transform="matrix(0.000000,1.000000,-1.000000,0.000000,359.704470,59.137400)" id="shape8"><path d="M7.6,.0L151.2,.0L151.2,-3.8L151.2,-7.6L7.6,-7.6L.0,-3.8L7.6,.0z" fill-rule="nonzero" fill="#7e7e7e"/><path stroke-width="1" d="M7.6,.0L151.2,.0M151.2,-7.6L7.6,-7.6M151.2,.0L151.2,-3.8L151.2,-7.6" stroke="#7e7e7e" fill="none"/></g><g transform="matrix(0.000000,1.000000,-1.000000,0.000000,509.747470,59.137400)" id="shape9"><path d="M7.6,.0L151.2,.0L151.2,-3.8L151.2,-7.6L7.6,-7.6L.0,-3.8L7.6,.0z" fill-rule="nonzero" fill="#7e7e7e"/><path stroke-width="1" d="M7.6,.0L151.2,.0M151.2,-7.6L7.6,-7.6M151.2,.0L151.2,-3.8L151.2,-7.6" stroke="#7e7e7e" fill="none"/></g><g transform="matrix(0.000000,1.000000,-1.000000,0.000000,662.399470,59.137400)" id="shape10"><path d="M7.6,.0L151.2,.0L151.2,-3.8L151.2,-7.6L7.6,-7.6L.0,-3.8L7.6,.0z" fill-rule="nonzero" fill="#7e7e7e"/><path stroke-width="1" d="M7.6,.0L151.2,.0M151.2,-7.6L7.6,-7.6M151.2,.0L151.2,-3.8L151.2,-7.6" stroke="#7e7e7e" fill="none"/></g><g transform="matrix(0.000000,1.000000,-1.000000,0.000000,811.573470,59.137400)" id="shape11"><path d="M7.6,.0L155.0,.0L151.2,-3.8L147.4,-7.6L7.6,-7.6L.0,-3.8L7.6,.0z" fill-rule="nonzero" fill="#7e7e7e"/><path stroke-width="1" d="M7.6,.0L155.0,.0M147.4,-7.6L7.6,-7.6" stroke="#7e7e7e" fill="none"/></g><g transform="matrix(0.000000,1.000000,-1.000000,0.000000,359.486470,512.681400)" id="shape12"><path d="M3.8,.0L143.6,.0L151.2,-3.8L143.6,-7.6L-3.8,-7.6L.0,-3.8L3.8,.0z" fill-rule="nonzero" fill="#7e7e7e"/><path stroke-width="1" d="M3.8,.0L143.6,.0M143.6,-7.6L-3.8,-7.6" stroke="#7e7e7e" fill="none"/></g><g transform="matrix(0.000000,1.000000,-1.000000,0.000000,511.269470,512.681400)" id="shape13"><path d="M.0,.0L143.6,.0L151.2,-3.8L143.6,-7.6L.0,-7.6L.0,-3.8L.0,.0z" fill-rule="nonzero" fill="#7e7e7e"/><path stroke-width="1" d="M.0,.0L143.6,.0M143.6,-7.6L.0,-7.6M.0,.0L.0,-3.8L.0,-7.6" stroke="#7e7e7e" fill="none"/></g><g transform="matrix(0.000000,1.000000,-1.000000,0.000000,661.313470,512.681400)" id="shape14"><path d="M.0,.0L143.6,.0L151.2,-3.8L143.6,-7.6L.0,-7.6L.0,-3.8L.0,.0z" fill-rule="nonzero" fill="#7e7e7e"/><path stroke-width="1" d="M.0,.0L143.6,.0M143.6,-7.6L.0,-7.6M.0,.0L.0,-3.8L.0,-7.6" stroke="#7e7e7e" fill="none"/></g><g transform="matrix(0.000000,1.000000,-1.000000,0.000000,813.095470,512.681400)" id="shape15"><path d="M-3.8,.0L143.6,.0L151.2,-3.8L143.6,-7.6L3.8,-7.6L.0,-3.8L-3.8,.0z" fill-rule="nonzero" fill="#7e7e7e"/><path stroke-width="1" d="M-3.8,.0L143.6,.0M143.6,-7.6L3.8,-7.6" stroke="#7e7e7e" fill="none"/></g><g transform="matrix(-1.000000,0.000000,0.000000,-1.000000,966.534600,206.539470)" id="shape16"><path d="M.0,.0L147.4,.0L151.2,-3.8L155.0,-7.6L.0,-7.6L.0,-3.8L.0,.0z" fill-rule="nonzero" fill="#7e7e7e"/><path stroke-width="1" d="M.0,.0L147.4,.0M155.0,-7.6L.0,-7.6M.0,.0L.0,-3.8L.0,-7.6" stroke="#7e7e7e" fill="none"/></g><g transform="matrix(-1.000000,0.000000,0.000000,-1.000000,968.056600,508.901470)" id="shape17"><path d="M7.6,.0L155.0,-0.0L151.2,-3.8L147.4,-7.6L7.6,-7.6L.0,-3.8L7.6,.0z" fill-rule="nonzero" fill="#7e7e7e"/><path stroke-width="1" d="M7.6,.0L155.0,-0.0M147.4,-7.6L7.6,-7.6" stroke="#7e7e7e" fill="none"/></g><g transform="matrix(-1.000000,0.000000,0.000000,-1.000000,363.397000,357.930470)" id="shape18"><path d="M.0,.0L302.4,.0L302.4,-3.8L302.4,-7.6L.0,-7.6L.0,-3.8L.0,.0z" fill-rule="nonzero" fill="#7e7e7e"/><path stroke-width="1" d="M.0,.0L302.4,.0M302.4,-7.6L.0,-7.6M.0,.0L.0,-3.8L.0,-7.6M302.4,.0L302.4,-3.8L302.4,-7.6" stroke="#7e7e7e" fill="none"/></g><g transform="matrix(-1.000000,0.000000,0.000000,-1.000000,968.043600,358.408470)" id="shape19"><path d="M7.6,.0L151.2,.0L151.2,-3.8L151.2,-7.6L7.6,-7.6L.0,-3.8L7.6,.0z" fill-rule="nonzero" fill="#7e7e7e"/><path stroke-width="1" d="M7.6,.0L151.2,.0M151.2,-7.6L7.6,-7.6M151.2,.0L151.2,-3.8L151.2,-7.6" stroke="#7e7e7e" fill="none"/></g><g transform="matrix(-1.000000,0.000000,0.000000,-1.000000,363.267000,508.901470)" id="shape20"><path d="M-3.8,.0L302.3,.0L302.3,-3.8L302.3,-7.6L3.8,-7.6L.0,-3.8L-3.8,.0z" fill-rule="nonzero" fill="#7e7e7e"/><path stroke-width="1" d="M-3.8,.0L302.3,.0M302.3,-7.6L3.8,-7.6M302.3,.0L302.3,-3.8L302.3,-7.6" stroke="#7e7e7e" fill="none"/></g><g transform="translate(62.042000,368.308000)" id="group21"><g transform="translate(24.990000,0.000000)" id="shape22"><path d="M.0,.0L254.0,.0L254.0,138.9L.0,138.9L.0,.0z" fill-rule="nonzero" fill="#ffffff"/><path stroke-width="1" d="M.0,.0L254.0,.0L254.0,138.9L.0,138.9L.0,.0zM48.0,1.1L48.0,140.0M98.9,.0L98.9,138.9M149.9,.0L149.9,138.9M203.0,.0L203.0,138.9" stroke="#2c2c2c" fill="none"/></g><path stroke-width="1" transform="translate(59.233900,48.849000)" id="shape23" d="M-11.3,8.2L-11.3,33.0L9.6,33.0L9.6,41.2L38.2,20.6L9.6,.0L9.6,8.2L-11.3,8.2z" fill-rule="nonzero" stroke="#2c2c2c" fill="#e6e6e6"/><path stroke-width="1" transform="translate(0.000000,2.186600)" id="shape24" d="M296.8,.0C296.8,.0,296.6,7.4,291.2,7.4C285.9,7.4,11.1,7.4,11.1,7.4C11.1,7.4,5.1,7.9,5.2,.0L.0,.0C.0,.0,.4,14.7,9.4,15.0C17.2,15.0,291.2,15.0,291.2,15.0C291.2,15.0,301.7,13.7,301.7,.0C301.7,.0,296.8,.0,296.8,.0zM6.3,134.5C6.3,134.5,6.5,127.2,11.9,127.2C17.2,127.2,292.0,127.2,292.0,127.2C292.0,127.2,298.0,126.6,297.9,134.5L303.1,134.5C303.1,134.5,302.7,119.8,293.7,119.6C285.9,119.6,11.9,119.6,11.9,119.6C11.9,119.6,1.4,120.9,1.4,134.5C1.4,134.5,6.3,134.5,6.3,134.5z" fill-rule="nonzero" stroke="#2c2c2c" fill="#ffffff"/></g><g transform="translate(91.847900,96.318300)" id="group25"><path stroke-width="0.25" id="shape26" d="M10.8,50.4L9.2,54.5L4.8,56.0L1.7,54.5L.0,51.4L.0,.0L101.1,.0L110.6,5.0L114.0,17.0L107.7,26.9L97.6,30.2L71.3,30.2L34.7,50.4L10.8,50.4z" fill-rule="nonzero" stroke="#000000" fill="#ffffff"/><path stroke-width="0.25" transform="translate(11.122900,0.186620)" id="shape27" d="M.0,8.0L89.4,8.0L92.3,6.2L93.0,4.6L92.3,2.1L89.4,.0" stroke="#000000" fill="none"/><path stroke-width="0.25" transform="translate(0.642630,0.559920)" id="shape28" d="M.0,.0L10.5,7.7" stroke="#000000" fill="none"/><path stroke-width="0.25" transform="translate(0.642630,8.586310)" id="shape29" d="M.0,.0L9.7,5.8L.0,1.7" stroke="#000000" fill="none"/><path stroke-width="0.25" transform="translate(22.196570,0.186640)" id="shape30" d="M.0,.4L5.9,7.5L2.0,.0" stroke="#000000" fill="none"/><path stroke-width="1" transform="translate(10.925200,8.212900)" id="shape31" d="M.0,.0L.0,42.2" stroke="#000000" fill="none"/><path stroke-width="1" transform="translate(25.296000,8.628280)" id="shape32" d="M.0,13.3L14.8,16.7L25.6,18.0L28.6,16.7L27.5,13.1L26.7,9.4L28.1,2.8L30.8,.5L22.2,1.6L18.7,2.5L7.4,1.4L1.6,.0C1.6,.0,3.9,8.9,3.7,9.0C3.6,9.1,.0,13.3,.0,13.3z" fill-rule="nonzero" stroke="#000000" fill="#ffffff"/><path stroke-width="1" transform="translate(7.439300,10.317200)" id="shape33" d="M17.5,.0C17.2,.0,5.7,10.8,5.7,10.8L1.9,15.3L.0,17.1L4.6,18.7L8.2,21.0L12.5,25.5L13.8,25.7L14.6,19.5L23.6,16.5L27.2,9.1L27.1,3.8L20.3,3.9L17.5,.0z" fill-rule="nonzero" stroke="#000000" fill="#ffffff"/><path stroke-width="1" transform="translate(13.676660,23.690050)" id="shape34" d="M.0,3.0L11.2,.0" stroke="#000000" fill="none"/><path stroke-width="1" transform="translate(22.480140,15.443150)" id="shape35" d="M3.0,.0L.0,6.5" stroke="#000000" fill="none"/><path stroke-width="1" transform="translate(36.652800,18.686390)" id="shape36" d="M.0,.0L12.0,4.9" stroke="#000000" fill="none"/><path stroke-width="1" transform="translate(44.812820,12.605390)" id="shape37" d="M6.9,.0C6.0,.0,.0,7.7,.0,7.7" stroke="#000000" fill="none"/></g><g transform="translate(524.398000,74.308000)" id="group38"><path stroke-width="0.25" id="shape39" d="M10.8,50.4L9.2,54.5L4.8,56.0L1.7,54.5L.0,51.4L.0,.0L101.1,.0L110.6,5.0L114.0,17.0L107.7,26.9L97.6,30.2L71.3,30.2L34.7,50.4L10.8,50.4z" fill-rule="nonzero" stroke="#000000" fill="#ffffff"/><path stroke-width="0.25" transform="translate(11.123100,0.186620)" id="shape40" d="M.0,8.0L89.4,8.0L92.3,6.2L93.0,4.6L92.3,2.1L89.4,.0" stroke="#000000" fill="none"/><path stroke-width="0.25" transform="translate(0.642650,0.559930)" id="shape41" d="M.0,.0L10.5,7.7" stroke="#000000" fill="none"/><path stroke-width="0.25" transform="translate(0.642640,8.586680)" id="shape42" d="M.0,.0L9.7,5.8L.0,1.7" stroke="#000000" fill="none"/><path stroke-width="0.25" transform="translate(22.196920,0.186660)" id="shape43" d="M.0,.4L5.9,7.5L2.0,.0" stroke="#000000" fill="none"/><path stroke-width="1" transform="translate(10.925400,8.213200)" id="shape44" d="M.0,.0L.0,42.2" stroke="#000000" fill="none"/><path stroke-width="1" transform="translate(25.296400,8.628670)" id="shape45" d="M.0,13.3L14.8,16.7L25.6,18.0L28.6,16.7L27.5,13.1L26.7,9.4L28.1,2.8L30.8,.5L22.2,1.6L18.7,2.5L7.4,1.4L1.6,.0C1.6,.0,3.9,8.9,3.7,9.0C3.6,9.1,.0,13.3,.0,13.3z" fill-rule="nonzero" stroke="#000000" fill="#ffffff"/><path stroke-width="1" transform="translate(7.439300,10.317700)" id="shape46" d="M17.5,.0C17.2,.0,5.7,10.8,5.7,10.8L1.9,15.3L.0,17.1L4.6,18.7L8.2,21.0L12.5,25.5L13.8,25.7L14.6,19.5L23.6,16.5L27.2,9.1L27.1,3.8L20.3,3.9L17.5,.0z" fill-rule="nonzero" stroke="#000000" fill="#ffffff"/><path stroke-width="1" transform="translate(13.676860,23.691090)" id="shape47" d="M.0,3.0L11.2,.0" stroke="#000000" fill="none"/><path stroke-width="1" transform="translate(22.480520,15.443910)" id="shape48" d="M3.0,.0L.0,6.5" stroke="#000000" fill="none"/><path stroke-width="1" transform="translate(36.653400,18.687180)" id="shape49" d="M.0,.0L12.0,4.9" stroke="#000000" fill="none"/><path stroke-width="1" transform="translate(44.813560,12.605920)" id="shape50" d="M6.9,.0C6.0,.0,.0,7.7,.0,7.7" stroke="#000000" fill="none"/></g><g transform="matrix(0.000000,1.000000,-1.000000,0.000000,502.657000,74.308000)" id="group51"><path stroke-width="0.25" id="shape52" d="M10.8,50.4L9.2,54.5L4.8,56.0L1.7,54.5L.0,51.4L.0,.0L101.1,.0L110.6,5.0L114.0,17.0L107.7,26.9L97.6,30.2L71.3,30.2L34.7,50.4L10.8,50.4z" fill-rule="nonzero" stroke="#000000" fill="#ffffff"/><path stroke-width="0.25" transform="translate(11.123100,0.186620)" id="shape53" d="M.0,8.0L89.4,8.0L92.3,6.2L93.0,4.6L92.3,2.1L89.4,.0" stroke="#000000" fill="none"/><path stroke-width="0.25" transform="translate(0.642650,0.559930)" id="shape54" d="M.0,.0L10.5,7.7" stroke="#000000" fill="none"/><path stroke-width="0.25" transform="translate(0.642640,8.586680)" id="shape55" d="M.0,.0L9.7,5.8L.0,1.7" stroke="#000000" fill="none"/><path stroke-width="0.25" transform="translate(22.196920,0.186660)" id="shape56" d="M.0,.4L5.9,7.5L2.0,.0" stroke="#000000" fill="none"/><path stroke-width="1" transform="translate(10.925400,8.213200)" id="shape57" d="M.0,.0L.0,42.2" stroke="#000000" fill="none"/><path stroke-width="1" transform="translate(25.296400,8.628670)" id="shape58" d="M.0,13.3L14.8,16.7L25.6,18.0L28.6,16.7L27.5,13.1L26.7,9.4L28.1,2.8L30.8,.5L22.2,1.6L18.7,2.5L7.4,1.4L1.6,.0C1.6,.0,3.9,8.9,3.7,9.0C3.6,9.1,.0,13.3,.0,13.3z" fill-rule="nonzero" stroke="#000000" fill="#ffffff"/><path stroke-width="1" transform="translate(7.439300,10.317700)" id="shape59" d="M17.5,.0C17.2,.0,5.7,10.8,5.7,10.8L1.9,15.3L.0,17.1L4.6,18.7L8.2,21.0L12.5,25.5L13.8,25.7L14.6,19.5L23.6,16.5L27.2,9.1L27.1,3.8L20.3,3.9L17.5,.0z" fill-rule="nonzero" stroke="#000000" fill="#ffffff"/><path stroke-width="1" transform="translate(13.676860,23.691090)" id="shape60" d="M.0,3.0L11.2,.0" stroke="#000000" fill="none"/><path stroke-width="1" transform="translate(22.480520,15.443910)" id="shape61" d="M3.0,.0L.0,6.5" stroke="#000000" fill="none"/><path stroke-width="1" transform="translate(36.653400,18.687180)" id="shape62" d="M.0,.0L12.0,4.9" stroke="#000000" fill="none"/><path stroke-width="1" transform="translate(44.813560,12.605920)" id="shape63" d="M6.9,.0C6.0,.0,.0,7.7,.0,7.7" stroke="#000000" fill="none"/></g><g transform="matrix(0.000000,1.000000,-1.000000,0.000000,802.398000,74.308000)" id="group64"><path stroke-width="0.25" id="shape65" d="M10.8,50.4L9.2,54.5L4.8,56.0L1.7,54.5L.0,51.4L.0,.0L101.1,.0L110.6,5.0L114.0,17.0L107.7,26.9L97.6,30.2L71.3,30.2L34.7,50.4L10.8,50.4z" fill-rule="nonzero" stroke="#000000" fill="#ffffff"/><path stroke-width="0.25" transform="translate(11.123100,0.186620)" id="shape66" d="M.0,8.0L89.4,8.0L92.3,6.2L93.0,4.6L92.3,2.1L89.4,.0" stroke="#000000" fill="none"/><path stroke-width="0.25" transform="translate(0.642650,0.559930)" id="shape67" d="M.0,.0L10.5,7.7" stroke="#000000" fill="none"/><path stroke-width="0.25" transform="translate(0.642640,8.586680)" id="shape68" d="M.0,.0L9.7,5.8L.0,1.7" stroke="#000000" fill="none"/><path stroke-width="0.25" transform="translate(22.196920,0.186660)" id="shape69" d="M.0,.4L5.9,7.5L2.0,.0" stroke="#000000" fill="none"/><path stroke-width="1" transform="translate(10.925400,8.213200)" id="shape70" d="M.0,.0L.0,42.2" stroke="#000000" fill="none"/><path stroke-width="1" transform="translate(25.296400,8.628670)" id="shape71" d="M.0,13.3L14.8,16.7L25.6,18.0L28.6,16.7L27.5,13.1L26.7,9.4L28.1,2.8L30.8,.5L22.2,1.6L18.7,2.5L7.4,1.4L1.6,.0C1.6,.0,3.9,8.9,3.7,9.0C3.6,9.1,.0,13.3,.0,13.3z" fill-rule="nonzero" stroke="#000000" fill="#ffffff"/><path stroke-width="1" transform="translate(7.439300,10.317700)" id="shape72" d="M17.5,.0C17.2,.0,5.7,10.8,5.7,10.8L1.9,15.3L.0,17.1L4.6,18.7L8.2,21.0L12.5,25.5L13.8,25.7L14.6,19.5L23.6,16.5L27.2,9.1L27.1,3.8L20.3,3.9L17.5,.0z" fill-rule="nonzero" stroke="#000000" fill="#ffffff"/><path stroke-width="1" transform="translate(13.676860,23.691090)" id="shape73" d="M.0,3.0L11.2,.0" stroke="#000000" fill="none"/><path stroke-width="1" transform="translate(22.480520,15.443910)" id="shape74" d="M3.0,.0L.0,6.5" stroke="#000000" fill="none"/><path stroke-width="1" transform="translate(36.653400,18.687180)" id="shape75" d="M.0,.0L12.0,4.9" stroke="#000000" fill="none"/><path stroke-width="1" transform="translate(44.813560,12.605920)" id="shape76" d="M6.9,.0C6.0,.0,.0,7.7,.0,7.7" stroke="#000000" fill="none"/></g><g transform="matrix(0.000000,1.000000,-1.000000,0.000000,952.398000,221.308000)" id="group77"><path stroke-width="0.25" id="shape78" d="M10.8,50.4L9.2,54.5L4.8,56.0L1.7,54.5L.0,51.4L.0,.0L101.1,.0L110.6,5.0L114.0,17.0L107.7,26.9L97.6,30.2L71.3,30.2L34.7,50.4L10.8,50.4z" fill-rule="nonzero" stroke="#000000" fill="#ffffff"/><path stroke-width="0.25" transform="translate(11.123100,0.186620)" id="shape79" d="M.0,8.0L89.4,8.0L92.3,6.2L93.0,4.6L92.3,2.1L89.4,.0" stroke="#000000" fill="none"/><path stroke-width="0.25" transform="translate(0.642650,0.559930)" id="shape80" d="M.0,.0L10.5,7.7" stroke="#000000" fill="none"/><path stroke-width="0.25" transform="translate(0.642640,8.586680)" id="shape81" d="M.0,.0L9.7,5.8L.0,1.7" stroke="#000000" fill="none"/><path stroke-width="0.25" transform="translate(22.196920,0.186660)" id="shape82" d="M.0,.4L5.9,7.5L2.0,.0" stroke="#000000" fill="none"/><path stroke-width="1" transform="translate(10.925400,8.213200)" id="shape83" d="M.0,.0L.0,42.2" stroke="#000000" fill="none"/><path stroke-width="1" transform="translate(25.296400,8.628670)" id="shape84" d="M.0,13.3L14.8,16.7L25.6,18.0L28.6,16.7L27.5,13.1L26.7,9.4L28.1,2.8L30.8,.5L22.2,1.6L18.7,2.5L7.4,1.4L1.6,.0C1.6,.0,3.9,8.9,3.7,9.0C3.6,9.1,.0,13.3,.0,13.3z" fill-rule="nonzero" stroke="#000000" fill="#ffffff"/><path stroke-width="1" transform="translate(7.439300,10.317700)" id="shape85" d="M17.5,.0C17.2,.0,5.7,10.8,5.7,10.8L1.9,15.3L.0,17.1L4.6,18.7L8.2,21.0L12.5,25.5L13.8,25.7L14.6,19.5L23.6,16.5L27.2,9.1L27.1,3.8L20.3,3.9L17.5,.0z" fill-rule="nonzero" stroke="#000000" fill="#ffffff"/><path stroke-width="1" transform="translate(13.676860,23.691090)" id="shape86" d="M.0,3.0L11.2,.0" stroke="#000000" fill="none"/><path stroke-width="1" transform="translate(22.480520,15.443910)" id="shape87" d="M3.0,.0L.0,6.5" stroke="#000000" fill="none"/><path stroke-width="1" transform="translate(36.653400,18.687180)" id="shape88" d="M.0,.0L12.0,4.9" stroke="#000000" fill="none"/><path stroke-width="1" transform="translate(44.813560,12.605920)" id="shape89" d="M6.9,.0C6.0,.0,.0,7.7,.0,7.7" stroke="#000000" fill="none"/></g><g transform="matrix(0.000000,-1.000000,1.000000,0.000000,533.342000,645.272000)" id="group90"><path stroke-width="0.25" id="shape91" d="M10.8,50.4L9.2,54.5L4.8,56.0L1.7,54.5L.0,51.4L.0,.0L101.1,.0L110.6,5.0L114.0,17.0L107.7,26.9L97.6,30.2L71.3,30.2L34.7,50.4L10.8,50.4z" fill-rule="nonzero" stroke="#000000" fill="#ffffff"/><path stroke-width="0.25" transform="translate(11.123100,0.186620)" id="shape92" d="M.0,8.0L89.4,8.0L92.3,6.2L93.0,4.6L92.3,2.1L89.4,.0" stroke="#000000" fill="none"/><path stroke-width="0.25" transform="translate(0.642650,0.559930)" id="shape93" d="M.0,.0L10.5,7.7" stroke="#000000" fill="none"/><path stroke-width="0.25" transform="translate(0.642640,8.586680)" id="shape94" d="M.0,.0L9.7,5.8L.0,1.7" stroke="#000000" fill="none"/><path stroke-width="0.25" transform="translate(22.196920,0.186660)" id="shape95" d="M.0,.4L5.9,7.5L2.0,.0" stroke="#000000" fill="none"/><path stroke-width="1" transform="translate(10.925400,8.213200)" id="shape96" d="M.0,.0L.0,42.2" stroke="#000000" fill="none"/><path stroke-width="1" transform="translate(25.296400,8.628670)" id="shape97" d="M.0,13.3L14.8,16.7L25.6,18.0L28.6,16.7L27.5,13.1L26.7,9.4L28.1,2.8L30.8,.5L22.2,1.6L18.7,2.5L7.4,1.4L1.6,.0C1.6,.0,3.9,8.9,3.7,9.0C3.6,9.1,.0,13.3,.0,13.3z" fill-rule="nonzero" stroke="#000000" fill="#ffffff"/><path stroke-width="1" transform="translate(7.439300,10.317700)" id="shape98" d="M17.5,.0C17.2,.0,5.7,10.8,5.7,10.8L1.9,15.3L.0,17.1L4.6,18.7L8.2,21.0L12.5,25.5L13.8,25.7L14.6,19.5L23.6,16.5L27.2,9.1L27.1,3.8L20.3,3.9L17.5,.0z" fill-rule="nonzero" stroke="#000000" fill="#ffffff"/><path stroke-width="1" transform="translate(13.676860,23.691090)" id="shape99" d="M.0,3.0L11.2,.0" stroke="#000000" fill="none"/><path stroke-width="1" transform="translate(22.480520,15.443910)" id="shape100" d="M3.0,.0L.0,6.5" stroke="#000000" fill="none"/><path stroke-width="1" transform="translate(36.653400,18.687180)" id="shape101" d="M.0,.0L12.0,4.9" stroke="#000000" fill="none"/><path stroke-width="1" transform="translate(44.813560,12.605920)" id="shape102" d="M6.9,.0C6.0,.0,.0,7.7,.0,7.7" stroke="#000000" fill="none"/></g><g transform="matrix(-1.000000,0.000000,0.000000,-1.000000,502.657000,645.272000)" id="group103"><path stroke-width="0.25" id="shape104" d="M10.8,50.4L9.2,54.5L4.8,56.0L1.7,54.5L.0,51.4L.0,.0L101.1,.0L110.6,5.0L114.0,17.0L107.7,26.9L97.6,30.2L71.3,30.2L34.7,50.4L10.8,50.4z" fill-rule="nonzero" stroke="#000000" fill="#ffffff"/><path stroke-width="0.25" transform="translate(11.123100,0.186620)" id="shape105" d="M.0,8.0L89.4,8.0L92.3,6.2L93.0,4.6L92.3,2.1L89.4,.0" stroke="#000000" fill="none"/><path stroke-width="0.25" transform="translate(0.642650,0.559930)" id="shape106" d="M.0,.0L10.5,7.7" stroke="#000000" fill="none"/><path stroke-width="0.25" transform="translate(0.642640,8.586680)" id="shape107" d="M.0,.0L9.7,5.8L.0,1.7" stroke="#000000" fill="none"/><path stroke-width="0.25" transform="translate(22.196920,0.186660)" id="shape108" d="M.0,.4L5.9,7.5L2.0,.0" stroke="#000000" fill="none"/><path stroke-width="1" transform="translate(10.925400,8.213200)" id="shape109" d="M.0,.0L.0,42.2" stroke="#000000" fill="none"/><path stroke-width="1" transform="translate(25.296400,8.628670)" id="shape110" d="M.0,13.3L14.8,16.7L25.6,18.0L28.6,16.7L27.5,13.1L26.7,9.4L28.1,2.8L30.8,.5L22.2,1.6L18.7,2.5L7.4,1.4L1.6,.0C1.6,.0,3.9,8.9,3.7,9.0C3.6,9.1,.0,13.3,.0,13.3z" fill-rule="nonzero" stroke="#000000" fill="#ffffff"/><path stroke-width="1" transform="translate(7.439300,10.317700)" id="shape111" d="M17.5,.0C17.2,.0,5.7,10.8,5.7,10.8L1.9,15.3L.0,17.1L4.6,18.7L8.2,21.0L12.5,25.5L13.8,25.7L14.6,19.5L23.6,16.5L27.2,9.1L27.1,3.8L20.3,3.9L17.5,.0z" fill-rule="nonzero" stroke="#000000" fill="#ffffff"/><path stroke-width="1" transform="translate(13.676860,23.691090)" id="shape112" d="M.0,3.0L11.2,.0" stroke="#000000" fill="none"/><path stroke-width="1" transform="translate(22.480520,15.443910)" id="shape113" d="M3.0,.0L.0,6.5" stroke="#000000" fill="none"/><path stroke-width="1" transform="translate(36.653400,18.687180)" id="shape114" d="M.0,.0L12.0,4.9" stroke="#000000" fill="none"/><path stroke-width="1" transform="translate(44.813560,12.605920)" id="shape115" d="M6.9,.0C6.0,.0,.0,7.7,.0,7.7" stroke="#000000" fill="none"/></g><g transform="matrix(-1.000000,0.000000,0.000000,-1.000000,802.398000,645.272000)" id="group116"><path stroke-width="0.25" id="shape117" d="M10.8,50.4L9.2,54.5L4.8,56.0L1.7,54.5L.0,51.4L.0,.0L101.1,.0L110.6,5.0L114.0,17.0L107.7,26.9L97.6,30.2L71.3,30.2L34.7,50.4L10.8,50.4z" fill-rule="nonzero" stroke="#000000" fill="#ffffff"/><path stroke-width="0.25" transform="translate(11.123100,0.186620)" id="shape118" d="M.0,8.0L89.4,8.0L92.3,6.2L93.0,4.6L92.3,2.1L89.4,.0" stroke="#000000" fill="none"/><path stroke-width="0.25" transform="translate(0.642650,0.559930)" id="shape119" d="M.0,.0L10.5,7.7" stroke="#000000" fill="none"/><path stroke-width="0.25" transform="translate(0.642640,8.586680)" id="shape120" d="M.0,.0L9.7,5.8L.0,1.7" stroke="#000000" fill="none"/><path stroke-width="0.25" transform="translate(22.196920,0.186660)" id="shape121" d="M.0,.4L5.9,7.5L2.0,.0" stroke="#000000" fill="none"/><path stroke-width="1" transform="translate(10.925400,8.213200)" id="shape122" d="M.0,.0L.0,42.2" stroke="#000000" fill="none"/><path stroke-width="1" transform="translate(25.296400,8.628670)" id="shape123" d="M.0,13.3L14.8,16.7L25.6,18.0L28.6,16.7L27.5,13.1L26.7,9.4L28.1,2.8L30.8,.5L22.2,1.6L18.7,2.5L7.4,1.4L1.6,.0C1.6,.0,3.9,8.9,3.7,9.0C3.6,9.1,.0,13.3,.0,13.3z" fill-rule="nonzero" stroke="#000000" fill="#ffffff"/><path stroke-width="1" transform="translate(7.439300,10.317700)" id="shape124" d="M17.5,.0C17.2,.0,5.7,10.8,5.7,10.8L1.9,15.3L.0,17.1L4.6,18.7L8.2,21.0L12.5,25.5L13.8,25.7L14.6,19.5L23.6,16.5L27.2,9.1L27.1,3.8L20.3,3.9L17.5,.0z" fill-rule="nonzero" stroke="#000000" fill="#ffffff"/><path stroke-width="1" transform="translate(13.676860,23.691090)" id="shape125" d="M.0,3.0L11.2,.0" stroke="#000000" fill="none"/><path stroke-width="1" transform="translate(22.480520,15.443910)" id="shape126" d="M3.0,.0L.0,6.5" stroke="#000000" fill="none"/><path stroke-width="1" transform="translate(36.653400,18.687180)" id="shape127" d="M.0,.0L12.0,4.9" stroke="#000000" fill="none"/><path stroke-width="1" transform="translate(44.813560,12.605920)" id="shape128" d="M6.9,.0C6.0,.0,.0,7.7,.0,7.7" stroke="#000000" fill="none"/></g><g transform="matrix(-1.000000,-0.000000,0.000000,-1.000000,952.398000,500.308000)" id="group129"><path stroke-width="0.25" id="shape130" d="M10.8,50.4L9.2,54.5L4.8,56.0L1.7,54.5L.0,51.4L.0,.0L101.1,.0L110.6,5.0L114.0,17.0L107.7,26.9L97.6,30.2L71.3,30.2L34.7,50.4L10.8,50.4z" fill-rule="nonzero" stroke="#000000" fill="#ffffff"/><path stroke-width="0.25" transform="translate(11.123100,0.186620)" id="shape131" d="M.0,8.0L89.4,8.0L92.3,6.2L93.0,4.6L92.3,2.1L89.4,.0" stroke="#000000" fill="none"/><path stroke-width="0.25" transform="translate(0.642650,0.559930)" id="shape132" d="M.0,.0L10.5,7.7" stroke="#000000" fill="none"/><path stroke-width="0.25" transform="translate(0.642640,8.586680)" id="shape133" d="M.0,.0L9.7,5.8L.0,1.7" stroke="#000000" fill="none"/><path stroke-width="0.25" transform="translate(22.196920,0.186660)" id="shape134" d="M.0,.4L5.9,7.5L2.0,.0" stroke="#000000" fill="none"/><path stroke-width="1" transform="translate(10.925400,8.213200)" id="shape135" d="M.0,.0L.0,42.2" stroke="#000000" fill="none"/><path stroke-width="1" transform="translate(25.296400,8.628670)" id="shape136" d="M.0,13.3L14.8,16.7L25.6,18.0L28.6,16.7L27.5,13.1L26.7,9.4L28.1,2.8L30.8,.5L22.2,1.6L18.7,2.5L7.4,1.4L1.6,.0C1.6,.0,3.9,8.9,3.7,9.0C3.6,9.1,.0,13.3,.0,13.3z" fill-rule="nonzero" stroke="#000000" fill="#ffffff"/><path stroke-width="1" transform="translate(7.439300,10.317700)" id="shape137" d="M17.5,.0C17.2,.0,5.7,10.8,5.7,10.8L1.9,15.3L.0,17.1L4.6,18.7L8.2,21.0L12.5,25.5L13.8,25.7L14.6,19.5L23.6,16.5L27.2,9.1L27.1,3.8L20.3,3.9L17.5,.0z" fill-rule="nonzero" stroke="#000000" fill="#ffffff"/><path stroke-width="1" transform="translate(13.676860,23.691090)" id="shape138" d="M.0,3.0L11.2,.0" stroke="#000000" fill="none"/><path stroke-width="1" transform="translate(22.480520,15.443910)" id="shape139" d="M3.0,.0L.0,6.5" stroke="#000000" fill="none"/><path stroke-width="1" transform="translate(36.653400,18.687180)" id="shape140" d="M.0,.0L12.0,4.9" stroke="#000000" fill="none"/><path stroke-width="1" transform="translate(44.813560,12.605920)" id="shape141" d="M6.9,.0C6.0,.0,.0,7.7,.0,7.7" stroke="#000000" fill="none"/></g><g transform="translate(382.460000,139.308000)" id="shape142"><path stroke-width="1" d="M41.0,49.0C45.4,49.0,49.0,45.4,49.0,41.0L49.0,8.0C49.0,3.6,45.4,.0,41.0,.0L8.0,.0C3.6,.0,.0,3.6,.0,8.0L.0,41.0C.0,45.4,3.6,49.0,8.0,49.0L41.0,49.0z" fill-rule="nonzero" stroke="#2c2c2c" fill="#ffffff"/></g><g transform="translate(589.398000,139.308000)" id="shape143"><path stroke-width="1" d="M41.0,49.0C45.4,49.0,49.0,45.4,49.0,41.0L49.0,8.0C49.0,3.6,45.4,.0,41.0,.0L8.0,.0C3.6,.0,.0,3.6,.0,8.0L.0,41.0C.0,45.4,3.6,49.0,8.0,49.0L41.0,49.0z" fill-rule="nonzero" stroke="#2c2c2c" fill="#ffffff"/></g><g transform="translate(688.398000,139.308000)" id="shape144"><path stroke-width="1" d="M41.0,49.0C45.4,49.0,49.0,45.4,49.0,41.0L49.0,8.0C49.0,3.6,45.4,.0,41.0,.0L8.0,.0C3.6,.0,.0,3.6,.0,8.0L.0,41.0C.0,45.4,3.6,49.0,8.0,49.0L41.0,49.0z" fill-rule="nonzero" stroke="#2c2c2c" fill="#ffffff"/></g><g transform="translate(838.398000,286.308000)" id="shape145"><path stroke-width="1" d="M41.0,49.0C45.4,49.0,49.0,45.4,49.0,41.0L49.0,8.0C49.0,3.6,45.4,.0,41.0,.0L8.0,.0C3.6,.0,.0,3.6,.0,8.0L.0,41.0C.0,45.4,3.6,49.0,8.0,49.0L41.0,49.0z" fill-rule="nonzero" stroke="#2c2c2c" fill="#ffffff"/></g><g transform="translate(838.398000,380.638000)" id="shape146"><path stroke-width="1" d="M41.0,49.0C45.4,49.0,49.0,45.4,49.0,41.0L49.0,8.0C49.0,3.6,45.4,.0,41.0,.0L8.0,.0C3.6,.0,.0,3.6,.0,8.0L.0,41.0C.0,45.4,3.6,49.0,8.0,49.0L41.0,49.0z" fill-rule="nonzero" stroke="#2c2c2c" fill="#ffffff"/></g><g transform="translate(688.398000,521.808000)" id="shape147"><path stroke-width="1" d="M41.0,49.0C45.4,49.0,49.0,45.4,49.0,41.0L49.0,8.0C49.0,3.6,45.4,.0,41.0,.0L8.0,.0C3.6,.0,.0,3.6,.0,8.0L.0,41.0C.0,45.4,3.6,49.0,8.0,49.0L41.0,49.0z" fill-rule="nonzero" stroke="#2c2c2c" fill="#ffffff"/></g><g transform="translate(603.855000,521.808000)" id="shape148"><path stroke-width="1" d="M41.0,49.0C45.4,49.0,49.0,45.4,49.0,41.0L49.0,8.0C49.0,3.6,45.4,.0,41.0,.0L8.0,.0C3.6,.0,.0,3.6,.0,8.0L.0,41.0C.0,45.4,3.6,49.0,8.0,49.0L41.0,49.0z" fill-rule="nonzero" stroke="#2c2c2c" fill="#ffffff"/></g><g transform="translate(382.460000,521.808000)" id="shape149"><path stroke-width="1" d="M41.0,49.0C45.4,49.0,49.0,45.4,49.0,41.0L49.0,8.0C49.0,3.6,45.4,.0,41.0,.0L8.0,.0C3.6,.0,.0,3.6,.0,8.0L.0,41.0C.0,45.4,3.6,49.0,8.0,49.0L41.0,49.0z" fill-rule="nonzero" stroke="#2c2c2c" fill="#ffffff"/></g><g transform="translate(428.923500,278.523200)" id="shape150"><path stroke-width="1" d="M.0,83.7C.0,37.5,38.6,.0,86.1,.0C133.7,.0,172.3,37.5,172.3,83.7C172.3,129.9,133.7,167.3,86.1,167.3C38.6,167.3,.0,129.9,.0,83.7z" fill-rule="nonzero" stroke="#2c2c2c" fill="#ffffff"/></g><g transform="translate(589.398500,277.835200)" id="shape151"><path stroke-width="1" d="M.0,83.7C.0,37.5,38.6,.0,86.1,.0C133.7,.0,172.3,37.5,172.3,83.7C172.3,129.9,133.7,167.3,86.1,167.3C38.6,167.3,.0,129.9,.0,83.7z" fill-rule="nonzero" stroke="#2c2c2c" fill="#ffffff"/></g><path stroke-width="1" transform="matrix(0.707107,0.707107,-0.707107,0.707107,820.398035,69.308035)" id="shape152" d="M-0.0,-0.0L198.0,-0.0" stroke="#303030" fill="none"/><path stroke-width="1" transform="matrix(0.707107,0.707107,-0.707107,0.707107,816.398035,515.308035)" id="shape153" d="M-0.0,-0.0L198.0,-0.0" stroke="#303030" fill="none"/><path stroke-width="1" transform="matrix(0.899984,0.435924,-0.435924,0.899984,68.397566,515.308817)" id="shape154" d="M-0.0,-0.0L323.4,-0.0" stroke="#303030" fill="none"/><path stroke-width="1" transform="matrix(-0.707107,0.707107,-0.707107,-0.707107,960.397970,66.308030)" id="shape155" d="M-0.0,-0.0L196.6,-0.0" stroke="#303030" fill="none"/><path stroke-width="1" transform="matrix(-0.707107,0.707107,-0.707107,-0.707107,960.397970,515.308030)" id="shape156" d="M-0.0,-0.0L196.6,-0.0" stroke="#303030" fill="none"/><path stroke-width="1" transform="matrix(-0.901077,0.433659,-0.433659,-0.901077,359.398040,516.309954)" id="shape157" d="M-0.0,-0.0L322.8,-0.0" stroke="#303030" fill="none"/><g transform="matrix(0.000000,-1.000000,1.000000,0.000000,95.250300,329.203100)" id="group158"><path stroke-width="0.25" id="shape159" d="M10.8,50.4L9.2,54.5L4.8,56.0L1.7,54.5L.0,51.4L.0,.0L101.1,.0L110.6,5.0L114.0,17.0L107.7,26.9L97.6,30.2L71.3,30.2L34.7,50.4L10.8,50.4z" fill-rule="nonzero" stroke="#000000" fill="#ffffff"/><path stroke-width="0.25" transform="translate(11.122900,0.186620)" id="shape160" d="M.0,8.0L89.4,8.0L92.3,6.2L93.0,4.6L92.3,2.1L89.4,.0" stroke="#000000" fill="none"/><path stroke-width="0.25" transform="translate(0.642630,0.559920)" id="shape161" d="M.0,.0L10.5,7.7" stroke="#000000" fill="none"/><path stroke-width="0.25" transform="translate(0.642630,8.586310)" id="shape162" d="M.0,.0L9.7,5.8L.0,1.7" stroke="#000000" fill="none"/><path stroke-width="0.25" transform="translate(22.196570,0.186640)" id="shape163" d="M.0,.4L5.9,7.5L2.0,.0" stroke="#000000" fill="none"/><path stroke-width="1" transform="translate(10.925200,8.212900)" id="shape164" d="M.0,.0L.0,42.2" stroke="#000000" fill="none"/><path stroke-width="1" transform="translate(25.296000,8.628280)" id="shape165" d="M.0,13.3L14.8,16.7L25.6,18.0L28.6,16.7L27.5,13.1L26.7,9.4L28.1,2.8L30.8,.5L22.2,1.6L18.7,2.5L7.4,1.4L1.6,.0C1.6,.0,3.9,8.9,3.7,9.0C3.6,9.1,.0,13.3,.0,13.3z" fill-rule="nonzero" stroke="#000000" fill="#ffffff"/><path stroke-width="1" transform="translate(7.439300,10.317200)" id="shape166" d="M17.5,.0C17.2,.0,5.7,10.8,5.7,10.8L1.9,15.3L.0,17.1L4.6,18.7L8.2,21.0L12.5,25.5L13.8,25.7L14.6,19.5L23.6,16.5L27.2,9.1L27.1,3.8L20.3,3.9L17.5,.0z" fill-rule="nonzero" stroke="#000000" fill="#ffffff"/><path stroke-width="1" transform="translate(13.676660,23.690050)" id="shape167" d="M.0,3.0L11.2,.0" stroke="#000000" fill="none"/><path stroke-width="1" transform="translate(22.480140,15.443150)" id="shape168" d="M3.0,.0L.0,6.5" stroke="#000000" fill="none"/><path stroke-width="1" transform="translate(36.652800,18.686390)" id="shape169" d="M.0,.0L12.0,4.9" stroke="#000000" fill="none"/><path stroke-width="1" transform="translate(44.812820,12.605390)" id="shape170" d="M6.9,.0C6.0,.0,.0,7.7,.0,7.7" stroke="#000000" fill="none"/></g><g transform="matrix(0.000000,1.000000,-1.000000,0.000000,344.508000,96.318000)" id="group171"><path stroke-width="0.25" id="shape172" d="M10.8,50.4L9.2,54.5L4.8,56.0L1.7,54.5L.0,51.4L.0,.0L101.1,.0L110.6,5.0L114.0,17.0L107.7,26.9L97.6,30.2L71.3,30.2L34.7,50.4L10.8,50.4z" fill-rule="nonzero" stroke="#000000" fill="#ffffff"/><path stroke-width="0.25" transform="translate(11.123100,0.186620)" id="shape173" d="M.0,8.0L89.4,8.0L92.3,6.2L93.0,4.6L92.3,2.1L89.4,.0" stroke="#000000" fill="none"/><path stroke-width="0.25" transform="translate(0.642650,0.559930)" id="shape174" d="M.0,.0L10.5,7.7" stroke="#000000" fill="none"/><path stroke-width="0.25" transform="translate(0.642640,8.586680)" id="shape175" d="M.0,.0L9.7,5.8L.0,1.7" stroke="#000000" fill="none"/><path stroke-width="0.25" transform="translate(22.196920,0.186660)" id="shape176" d="M.0,.4L5.9,7.5L2.0,.0" stroke="#000000" fill="none"/><path stroke-width="1" transform="translate(10.925400,8.213200)" id="shape177" d="M.0,.0L.0,42.2" stroke="#000000" fill="none"/><path stroke-width="1" transform="translate(25.296400,8.628670)" id="shape178" d="M.0,13.3L14.8,16.7L25.6,18.0L28.6,16.7L27.5,13.1L26.7,9.4L28.1,2.8L30.8,.5L22.2,1.6L18.7,2.5L7.4,1.4L1.6,.0C1.6,.0,3.9,8.9,3.7,9.0C3.6,9.1,.0,13.3,.0,13.3z" fill-rule="nonzero" stroke="#000000" fill="#ffffff"/><path stroke-width="1" transform="translate(7.439300,10.317700)" id="shape179" d="M17.5,.0C17.2,.0,5.7,10.8,5.7,10.8L1.9,15.3L.0,17.1L4.6,18.7L8.2,21.0L12.5,25.5L13.8,25.7L14.6,19.5L23.6,16.5L27.2,9.1L27.1,3.8L20.3,3.9L17.5,.0z" fill-rule="nonzero" stroke="#000000" fill="#ffffff"/><path stroke-width="1" transform="translate(13.676860,23.691090)" id="shape180" d="M.0,3.0L11.2,.0" stroke="#000000" fill="none"/><path stroke-width="1" transform="translate(22.480520,15.443910)" id="shape181" d="M3.0,.0L.0,6.5" stroke="#000000" fill="none"/><path stroke-width="1" transform="translate(36.653400,18.687180)" id="shape182" d="M.0,.0L12.0,4.9" stroke="#000000" fill="none"/><path stroke-width="1" transform="translate(44.813560,12.605920)" id="shape183" d="M6.9,.0C6.0,.0,.0,7.7,.0,7.7" stroke="#000000" fill="none"/></g><g transform="matrix(0.000000,1.000000,-1.000000,0.000000,273.311300,96.318000)" id="group184"><path stroke-width="1" transform="translate(13.898400,0.000000)" id="shape185" d="M.0,.0L26.2,.0L26.2,52.3L.0,52.3L.0,.0z" fill-rule="nonzero" stroke="#2c2c2c" fill="#ffffff"/><path stroke-width="1" transform="translate(19.615100,4.398700)" id="shape186" d="M27.0,.0C27.0,.0,29.2,8.7,29.5,20.6C29.9,32.5,27.0,43.5,27.0,43.5L.0,43.5L.0,.0L27.0,.0z" fill-rule="nonzero" stroke="#2c2c2c" fill="#ffffff"/><path stroke-width="1" transform="translate(0.000000,2.156200)" id="shape187" d="M3.7,.0C3.7,.0,.0,9.4,.0,23.8C.0,38.1,3.7,48.0,3.7,48.0L20.3,48.0L20.3,.0L3.7,.0z" fill-rule="nonzero" stroke="#2c2c2c" fill="#ffffff"/><path stroke-width="1" transform="translate(6.209800,0.000000)" id="shape188" d="M7.7,.0L41.7,.0L41.7,4.4L7.7,4.4L7.7,.0zM7.7,47.9L41.7,47.9L41.7,52.3L7.7,52.3L7.7,47.9zM4.3,11.7C6.7,11.7,8.6,13.6,8.6,16.0L8.6,36.7C8.6,39.1,6.7,41.0,4.3,41.0C1.9,41.0,.0,39.1,.0,36.7L.0,16.0C.0,13.6,1.9,11.7,4.3,11.7z" fill-rule="nonzero" stroke="#2c2c2c" fill="#ffffff"/></g><g transform="translate(95.251000,158.051700)" id="group189"><path stroke-width="1" transform="translate(13.898400,0.000000)" id="shape190" d="M.0,.0L26.2,.0L26.2,52.3L.0,52.3L.0,.0z" fill-rule="nonzero" stroke="#2c2c2c" fill="#ffffff"/><path stroke-width="1" transform="translate(19.615100,4.398700)" id="shape191" d="M27.0,.0C27.0,.0,29.2,8.7,29.5,20.6C29.9,32.5,27.0,43.5,27.0,43.5L.0,43.5L.0,.0L27.0,.0z" fill-rule="nonzero" stroke="#2c2c2c" fill="#ffffff"/><path stroke-width="1" transform="translate(0.000000,2.156200)" id="shape192" d="M3.7,.0C3.7,.0,.0,9.4,.0,23.8C.0,38.1,3.7,48.0,3.7,48.0L20.3,48.0L20.3,.0L3.7,.0z" fill-rule="nonzero" stroke="#2c2c2c" fill="#ffffff"/><path stroke-width="1" transform="translate(6.209800,0.000000)" id="shape193" d="M7.7,.0L41.7,.0L41.7,4.4L7.7,4.4L7.7,.0zM7.7,47.9L41.7,47.9L41.7,52.3L7.7,52.3L7.7,47.9zM4.3,11.7C6.7,11.7,8.6,13.6,8.6,16.0L8.6,36.7C8.6,39.1,6.7,41.0,4.3,41.0C1.9,41.0,.0,39.1,.0,36.7L.0,16.0C.0,13.6,1.9,11.7,4.3,11.7z" fill-rule="nonzero" stroke="#2c2c2c" fill="#ffffff"/></g><g transform="translate(172.176900,170.318900)" id="shape194"><path stroke-width="1" d="M.0,57.0C.0,25.5,25.5,.0,57.0,.0C88.5,.0,114.0,25.5,114.0,57.0C114.0,88.5,88.5,114.0,57.0,114.0C25.5,114.0,.0,88.5,.0,57.0z" fill-rule="nonzero" stroke="#2c2c2c" fill="#ffffff"/></g><path stroke-width="1" transform="translate(524.398100,278.523100)" id="shape195" d="M166.6,166.6L166.6,.0L.0,.0L.0,166.6L166.6,166.6z" fill-rule="nonzero" stroke="#101843" fill="#ffffff"/><path stroke-width="1" transform="translate(478.765000,320.208300)" id="shape196" d="M.0,43.8L7.9,43.1C8.2,46.3,9.1,48.9,10.5,50.9C11.8,52.9,13.9,54.5,16.8,55.8C19.7,57.0,22.9,57.7,26.5,57.7C29.6,57.7,32.5,57.2,34.9,56.2C37.3,55.3,39.1,54.0,40.3,52.4C41.5,50.7,42.1,48.9,42.1,47.0C42.1,45.0,41.5,43.3,40.4,41.8C39.2,40.3,37.4,39.1,34.7,38.1C33.0,37.4,29.3,36.4,23.5,35.0C17.7,33.6,13.7,32.3,11.3,31.1C8.3,29.5,6.1,27.5,4.6,25.2C3.1,22.9,2.4,20.3,2.4,17.4C2.4,14.2,3.3,11.2,5.1,8.4C6.9,5.7,9.6,3.6,13.0,2.1C16.5,.7,20.3,.0,24.6,.0C29.2,.0,33.4,.8,36.9,2.3C40.5,3.8,43.2,6.0,45.2,8.9C47.1,11.8,48.1,15.1,48.3,18.8L40.3,19.4C39.8,15.4,38.4,12.4,35.9,10.4C33.4,8.4,29.8,7.3,24.9,7.3C19.9,7.3,16.2,8.3,13.9,10.1C11.6,12.0,10.4,14.2,10.4,16.8C10.4,19.1,11.3,20.9,12.9,22.4C14.5,23.8,18.7,25.3,25.5,26.9C32.2,28.4,36.9,29.7,39.4,30.9C43.1,32.6,45.8,34.7,47.5,37.3C49.3,39.9,50.1,42.9,50.1,46.3C50.1,49.6,49.2,52.8,47.3,55.8C45.3,58.7,42.6,61.0,39.0,62.7C35.4,64.3,31.4,65.1,26.9,65.1C21.2,65.1,16.4,64.3,12.5,62.6C8.7,61.0,5.7,58.5,3.5,55.1C1.3,51.8,.0,48.0,.0,43.8zM77.4,57.1L78.5,64.0C76.3,64.4,74.4,64.7,72.7,64.7C69.9,64.7,67.7,64.2,66.1,63.3C64.6,62.4,63.5,61.3,62.9,59.8C62.2,58.4,61.9,55.3,61.9,50.7L61.9,24.4L56.3,24.4L56.3,18.4L61.9,18.4L61.9,7.1L69.6,2.5L69.6,18.4L77.4,18.4L77.4,24.4L69.6,24.4L69.6,51.1C69.6,53.3,69.8,54.8,70.0,55.4C70.3,56.0,70.7,56.5,71.4,56.9C72.0,57.3,72.9,57.4,74.0,57.4C74.9,57.4,76.0,57.3,77.4,57.1zM114.1,58.4C111.3,60.9,108.5,62.6,105.8,63.6C103.2,64.6,100.4,65.1,97.3,65.1C92.3,65.1,88.5,63.9,85.8,61.4C83.1,59.0,81.7,55.8,81.7,52.0C81.7,49.8,82.2,47.8,83.2,45.9C84.3,44.1,85.6,42.6,87.2,41.5C88.9,40.3,90.7,39.5,92.8,38.9C94.3,38.5,96.6,38.1,99.7,37.8C105.9,37.0,110.5,36.1,113.5,35.1C113.5,34.0,113.5,33.4,113.5,33.1C113.5,29.9,112.8,27.7,111.3,26.4C109.4,24.7,106.4,23.8,102.5,23.8C98.9,23.8,96.2,24.4,94.5,25.7C92.7,27.0,91.4,29.2,90.6,32.5L83.1,31.5C83.7,28.2,84.9,25.6,86.5,23.6C88.0,21.6,90.3,20.1,93.3,19.0C96.3,17.9,99.7,17.4,103.6,17.4C107.5,17.4,110.7,17.9,113.1,18.8C115.6,19.7,117.4,20.8,118.5,22.2C119.7,23.6,120.5,25.4,120.9,27.5C121.2,28.8,121.3,31.2,121.3,34.6L121.3,44.9C121.3,52.1,121.5,56.7,121.8,58.6C122.1,60.5,122.8,62.3,123.7,64.1L115.7,64.1C114.9,62.5,114.4,60.6,114.1,58.4zM113.5,41.2C110.7,42.3,106.5,43.3,100.8,44.1C97.7,44.5,95.4,45.1,94.1,45.6C92.8,46.2,91.8,47.0,91.0,48.1C90.3,49.2,90.0,50.5,90.0,51.8C90.0,53.9,90.8,55.6,92.3,57.0C93.9,58.3,96.2,59.0,99.2,59.0C102.1,59.0,104.8,58.4,107.1,57.1C109.4,55.8,111.1,54.0,112.2,51.7C113.1,50.0,113.5,47.4,113.5,44.0L113.5,41.2zM132.4,67.8L139.9,69.0C140.3,71.3,141.1,73.0,142.6,74.0C144.5,75.5,147.1,76.2,150.4,76.2C154.0,76.2,156.8,75.5,158.7,74.0C160.7,72.6,162.0,70.6,162.7,68.0C163.1,66.4,163.3,63.1,163.2,58.1C159.9,62.1,155.6,64.1,150.6,64.1C144.3,64.1,139.5,61.8,136.0,57.3C132.6,52.7,130.9,47.3,130.9,41.0C130.9,36.6,131.7,32.6,133.2,28.9C134.8,25.3,137.1,22.4,140.1,20.4C143.1,18.4,146.6,17.4,150.6,17.4C156.0,17.4,160.5,19.6,164.0,23.9L164.0,18.4L171.1,18.4L171.1,57.9C171.1,65.0,170.4,70.0,168.9,73.0C167.5,75.9,165.2,78.3,162.1,80.0C158.9,81.7,155.1,82.6,150.5,82.6C145.0,82.6,140.6,81.4,137.3,78.9C133.9,76.5,132.3,72.8,132.4,67.8zM138.8,40.4C138.8,46.4,140.0,50.8,142.4,53.5C144.8,56.3,147.8,57.7,151.3,57.7C154.9,57.7,157.9,56.3,160.3,53.6C162.7,50.8,163.9,46.5,163.9,40.7C163.9,35.1,162.6,30.9,160.2,28.1C157.7,25.2,154.7,23.8,151.2,23.8C147.8,23.8,144.8,25.2,142.4,28.0C140.0,30.8,138.8,34.9,138.8,40.4zM214.6,49.4L222.6,50.4C221.3,55.0,219.0,58.7,215.6,61.2C212.2,63.8,207.8,65.1,202.5,65.1C195.8,65.1,190.5,63.0,186.6,58.9C182.7,54.8,180.8,49.1,180.8,41.6C180.8,34.0,182.7,28.0,186.7,23.8C190.6,19.5,195.8,17.4,202.1,17.4C208.2,17.4,213.2,19.5,217.0,23.6C220.9,27.8,222.8,33.6,222.8,41.2C222.8,41.6,222.8,42.3,222.8,43.2L188.8,43.2C189.0,48.2,190.5,52.1,193.0,54.7C195.6,57.4,198.7,58.7,202.5,58.7C205.4,58.7,207.8,58.0,209.8,56.5C211.8,55.0,213.4,52.6,214.6,49.4zM189.2,36.9L214.7,36.9C214.3,33.0,213.3,30.1,211.7,28.2C209.3,25.3,206.1,23.8,202.2,23.8C198.6,23.8,195.6,24.9,193.2,27.3C190.8,29.7,189.4,32.9,189.2,36.9z" fill-rule="nonzero" stroke="#101843" fill="#ffffff"/></g></svg>