<svg xmlns="http://www.w3.org/2000/svg" width="1039" xmlns:xlink="http://www.w3.org/1999/xlink" height="733" xmlns:ev="http://www.w3.org/2001/xml-events" viewBox="0 0 1039 733"><defs/><g transform="translate(5.5,5.5)" id="page1"><rect x="0" y="0" width="1029" height="723" fill="#ffffff"/><path stroke-width="1" transform="translate(314.372000,66.793000)" id="shape1" d="M347.6,296.6L347.6,.0L.0,.0L.0,296.6L347.6,296.6z" fill-rule="nonzero" stroke="#ffffff" fill="#ffffff"/><path stroke-width="1" transform="translate(178.094000,363.187000)" id="shape2" d="M635.2,292.6L635.2,.0L.0,.0L.0,292.6L635.2,292.6z" fill-rule="nonzero" stroke="#ffffff" fill="#ffffff"/><g transform="matrix(1.000000,0.000000,-0.000000,1.000000,60.957000,66.696850)" id="shape3"><path d="M7.6,.0L899.5,.0L907.1,-7.6L914.6,-15.1L-7.6,-15.1L.0,-7.6L7.6,.0z" fill-rule="nonzero" fill="#7e7e7e"/><path stroke-width="1" d="M7.6,.0L899.5,.0M914.6,-15.1L-7.6,-15.1" stroke="#7e7e7e" fill="none"/></g><g transform="matrix(0.000000,1.000000,-1.000000,0.000000,960.484950,59.137800)" id="shape4"><path d="M7.6,.0L597.2,.0L604.7,-7.6L612.3,-15.1L-7.6,-15.1L.0,-7.6L7.6,.0z" fill-rule="nonzero" fill="#7e7e7e"/><path stroke-width="1" d="M7.6,.0L597.2,.0M612.3,-15.1L-7.6,-15.1" stroke="#7e7e7e" fill="none"/></g><g transform="matrix(1.000000,0.000000,-0.000000,1.000000,60.956000,671.421050)" id="shape5"><path d="M7.6,-15.1L752.4,-15.1L756.2,-7.6L760.0,-15.1L899.5,-15.1L914.6,.0L-7.6,.0L7.6,-15.1z" fill-rule="nonzero" fill="#7e7e7e"/><path stroke-width="1" d="M-7.6,.0L914.6,.0M899.5,-15.1L7.6,-15.1" stroke="#7e7e7e" fill="none"/></g><g transform="matrix(0.000000,1.000000,-1.000000,0.000000,53.397650,59.138000)" id="shape6"><path d="M7.6,-15.1L126.3,-15.1L130.1,-7.6L133.8,-15.1L296.7,-15.1L300.5,-7.6L304.3,-15.1L597.2,-15.1L612.3,.0L-7.6,.0L7.6,-15.1z" fill-rule="nonzero" fill="#7e7e7e"/><path stroke-width="1" d="M-7.6,.0L612.3,.0M597.2,-15.1L7.6,-15.1" stroke="#7e7e7e" fill="none"/></g><g transform="matrix(0.000000,1.000000,-1.000000,0.000000,305.801470,189.192308)" id="shape7"><path d="M3.8,.0L166.7,.0L170.4,-3.8L166.7,-7.6L-3.8,-7.6L.0,-3.8L3.8,.0z" fill-rule="nonzero" fill="#7e7e7e"/><path stroke-width="1" d="M3.8,.0L166.7,.0M166.7,-7.6L-3.8,-7.6" stroke="#7e7e7e" fill="none"/></g><g transform="matrix(0.000000,1.000000,-1.000000,0.000000,813.396473,357.750000)" id="shape8"><path d="M3.8,.0L298.6,.0L306.1,-3.8L298.6,-7.6L-3.8,-7.6L.0,-3.8L3.8,.0z" fill-rule="nonzero" fill="#7e7e7e"/><path stroke-width="1" d="M3.8,.0L298.6,.0M298.6,-7.6L-3.8,-7.6" stroke="#7e7e7e" fill="none"/></g><g transform="matrix(1.000000,-0.000000,0.000000,-1.000000,663.353000,202.269231)" id="group9"><g transform="matrix(-1.000000,0.000000,0.000000,-1.000000,275.213546,135.551839)" id="shape10"><path d="M.0,.0L250.6,.0L250.6,134.5L.0,134.5L.0,.0z" fill-rule="nonzero" fill="#ffffff"/><path stroke-width="1" d="M.0,.0L250.6,.0L250.6,134.5L.0,134.5L.0,.0zM47.4,1.1L47.4,135.6M97.6,.0L97.6,134.5M147.9,.0L147.9,134.5M200.3,.0L200.3,134.5" stroke="#2c2c2c" fill="none"/></g><path stroke-width="1" transform="translate(58.428759,47.296951)" id="shape11" d="M-11.3,8.0L-11.3,31.9L9.4,31.9L9.4,39.9L37.7,19.9L9.4,.0L9.4,8.0L-11.3,8.0z" fill-rule="nonzero" stroke="#2c2c2c" fill="#e6e6e6"/><path stroke-width="1" transform="translate(0.000000,6.159899)" id="shape12" d="M292.9,.0C292.9,.0,292.7,6.9,287.5,6.9C282.2,6.9,10.9,6.9,10.9,6.9C10.9,6.9,5.0,7.4,5.1,.0L.0,.0C.0,.0,.4,13.8,9.2,14.0C17.0,14.0,287.5,14.0,287.5,14.0C287.5,14.0,297.8,12.8,297.8,.0C297.8,.0,292.9,.0,292.9,.0zM6.2,126.2C6.2,126.2,6.5,119.3,11.7,119.3C17.0,119.3,288.3,119.3,288.3,119.3C288.3,119.3,294.2,118.8,294.1,126.2L299.2,126.2C299.2,126.2,298.8,112.4,290.0,112.2C282.2,112.2,11.7,112.2,11.7,112.2C11.7,112.2,1.4,113.4,1.4,126.2C1.4,126.2,6.2,126.2,6.2,126.2z" fill-rule="nonzero" stroke="#2c2c2c" fill="#ffffff"/></g><g transform="matrix(-0.002812,0.999996,-0.999996,-0.002812,661.747485,204.126373)" id="shape13"><path d="M-3.8,-0.0L154.4,.0L154.4,-3.8L154.4,-7.6L3.8,-7.6L.0,-3.8L-3.8,-0.0z" fill-rule="nonzero" fill="#7e7e7e"/><path stroke-width="1" d="M-3.8,-0.0L154.4,.0M154.4,-7.6L3.8,-7.6M154.4,.0L154.4,-3.8L154.4,-7.6" stroke="#7e7e7e" fill="none"/></g><g transform="matrix(-1.000000,0.000000,0.000000,-1.000000,968.043000,200.357470)" id="shape14"><path d="M.0,.0L306.3,.0L302.5,-3.8L298.7,-7.6L.0,-7.6L.0,-3.8L.0,.0z" fill-rule="nonzero" fill="#7e7e7e"/><path stroke-width="1" d="M.0,.0L306.3,.0M298.7,-7.6L.0,-7.6M.0,.0L.0,-3.8L.0,-7.6" stroke="#7e7e7e" fill="none"/></g><g transform="matrix(-1.000000,0.000000,0.000000,-1.000000,817.176003,353.970470)" id="shape15"><path d="M-3.8,.0L223.8,.0L223.8,-3.8L223.8,-7.6L3.8,-7.6L.0,-3.8L-3.8,.0z" fill-rule="nonzero" fill="#7e7e7e"/><path stroke-width="1" d="M-3.8,.0L223.8,.0M223.8,-7.6L3.8,-7.6M223.8,.0L223.8,-3.8L223.8,-7.6" stroke="#7e7e7e" fill="none"/></g><g transform="matrix(-1.000000,-0.000000,0.000000,-1.000000,309.581000,355.845470)" id="shape16"><path d="M.0,-3.8L-0.0,-7.6L131.0,-7.6L134.8,-3.8L138.5,-7.6L241.1,-7.6L248.6,-3.8L241.1,.0L3.8,.0L.0,-3.8z" fill-rule="nonzero" fill="#7e7e7e"/><path stroke-width="1" d="M3.8,.0L241.1,.0M241.1,-7.6L-0.0,-7.6" stroke="#7e7e7e" fill="none"/></g><g transform="matrix(0.000000,1.000000,-1.000000,0.000000,171.051470,359.625000)" id="shape17"><path d="M3.8,.0L300.5,.0L300.5,-3.8L300.5,-7.6L3.8,-7.6L.0,-3.8L3.8,.0z" fill-rule="nonzero" fill="#7e7e7e"/><path stroke-width="1" d="M3.8,.0L300.5,.0M300.5,-7.6L3.8,-7.6M300.5,.0L300.5,-3.8L300.5,-7.6" stroke="#7e7e7e" fill="none"/></g><g transform="matrix(-1.000000,0.000000,0.000000,-1.000000,385.750500,355.845470)" id="shape18"><path d="M.0,.0L72.4,.0L76.2,-3.8L76.2,-7.6L.0,-7.6L.0,-3.8L.0,.0z" fill-rule="nonzero" fill="#7e7e7e"/><path stroke-width="1" d="M.0,.0L72.4,.0M76.2,-7.6L.0,-7.6M.0,.0L.0,-3.8L.0,-7.6" stroke="#7e7e7e" fill="none"/></g><g transform="translate(557.002114,249.903322)" id="shape19"><path stroke-width="1" d="M.0,.0L101.9,.0L101.9,30.0L.0,30.0L.0,.0z" fill-rule="nonzero" stroke="#2c2c2c" fill="#ffffff"/></g><g transform="translate(280.749300,365.214600)" id="shape20"><path stroke-width="1" d="M25.8,165.0C30.2,165.0,33.8,161.5,33.8,157.0L33.8,8.0C33.8,3.6,30.2,.0,25.8,.0L8.0,.0C3.6,.0,.0,3.6,.0,8.0L.0,157.0C.0,161.5,3.6,165.0,8.0,165.0L25.8,165.0z" fill-rule="nonzero" stroke="#2c2c2c" fill="#ffffff"/></g><path stroke-width="1" transform="matrix(0.000000,-1.000000,1.000000,0.000000,198.228300,513.845500)" id="shape21" d="M.0,63.0L.0,.0L23.6,.0C28.4,.0,32.3,.6,35.2,1.9C38.1,3.2,40.4,5.1,42.0,7.8C43.7,10.4,44.5,13.2,44.5,16.1C44.5,18.8,43.8,21.3,42.3,23.7C40.9,26.1,38.7,28.0,35.7,29.5C39.5,30.6,42.4,32.5,44.5,35.2C46.5,37.9,47.6,41.1,47.6,44.7C47.6,47.7,46.9,50.4,45.7,53.0C44.4,55.5,42.9,57.4,41.1,58.8C39.2,60.2,36.9,61.2,34.2,61.9C31.4,62.6,28.0,63.0,24.0,63.0L.0,63.0zM8.3,26.5L22.0,26.5C25.7,26.5,28.3,26.2,29.9,25.7C32.0,25.1,33.6,24.1,34.7,22.6C35.8,21.1,36.3,19.3,36.3,17.1C36.3,15.0,35.8,13.2,34.8,11.6C33.8,10.0,32.4,8.9,30.5,8.3C28.6,7.7,25.5,7.4,20.9,7.4L8.3,7.4L8.3,26.5zM8.3,55.6L24.0,55.6C26.7,55.6,28.6,55.5,29.7,55.3C31.6,54.9,33.2,54.3,34.5,53.5C35.8,52.7,36.9,51.6,37.7,50.0C38.5,48.5,38.9,46.7,38.9,44.7C38.9,42.4,38.3,40.3,37.1,38.6C35.9,36.9,34.3,35.7,32.1,35.0C30.0,34.3,26.9,33.9,22.9,33.9L8.3,33.9L8.3,55.6zM87.8,57.4C84.9,59.8,82.2,61.5,79.5,62.5C76.9,63.5,74.0,64.0,71.0,64.0C66.0,64.0,62.1,62.8,59.4,60.3C56.7,57.9,55.4,54.8,55.4,51.0C55.4,48.7,55.9,46.7,56.9,44.8C57.9,43.0,59.3,41.5,60.9,40.4C62.6,39.3,64.4,38.4,66.5,37.9C68.0,37.5,70.3,37.1,73.4,36.7C79.6,35.9,84.2,35.1,87.2,34.0C87.2,33.0,87.2,32.3,87.2,32.0C87.2,28.9,86.5,26.6,85.0,25.4C83.0,23.6,80.1,22.7,76.2,22.7C72.6,22.7,69.9,23.4,68.1,24.6C66.4,25.9,65.1,28.2,64.3,31.4L56.7,30.4C57.4,27.1,58.6,24.5,60.1,22.5C61.7,20.5,64.0,19.0,67.0,17.9C69.9,16.9,73.4,16.3,77.3,16.3C81.2,16.3,84.4,16.8,86.8,17.7C89.2,18.6,91.0,19.8,92.2,21.2C93.3,22.6,94.1,24.3,94.6,26.4C94.8,27.7,95.0,30.1,95.0,33.6L95.0,43.9C95.0,51.1,95.1,55.6,95.5,57.5C95.8,59.4,96.4,61.2,97.4,63.0L89.3,63.0C88.5,61.4,88.0,59.5,87.8,57.4zM87.2,40.1C84.3,41.2,80.1,42.2,74.5,43.0C71.3,43.5,69.1,44.0,67.8,44.6C66.5,45.1,65.4,46.0,64.7,47.1C64.0,48.2,63.6,49.4,63.6,50.7C63.6,52.8,64.4,54.5,66.0,55.9C67.6,57.3,69.8,58.0,72.8,58.0C75.8,58.0,78.5,57.3,80.8,56.0C83.1,54.7,84.8,52.9,85.9,50.7C86.7,48.9,87.2,46.3,87.2,42.9L87.2,40.1zM107.4,63.0L107.4,17.4L114.4,17.4L114.4,24.3C116.2,21.0,117.8,18.9,119.3,17.9C120.8,16.8,122.5,16.3,124.3,16.3C126.9,16.3,129.5,17.2,132.2,18.8L129.6,26.0C127.7,24.9,125.8,24.3,123.9,24.3C122.2,24.3,120.7,24.8,119.3,25.8C118.0,26.9,117.0,28.3,116.5,30.1C115.6,32.8,115.2,35.8,115.2,39.1L115.2,63.0L107.4,63.0z" fill-rule="nonzero" stroke="#101843" fill="#ffffff"/><g transform="matrix(-1.000000,0.000000,0.000000,-1.000000,331.741700,530.785470)" id="shape22"><path d="M.0,.0L68.9,.0L68.9,-3.8L68.9,-7.6L.0,-7.6L.0,-3.8L.0,.0z" fill-rule="nonzero" fill="#7e7e7e"/><path stroke-width="1" d="M.0,.0L68.9,.0M68.9,-7.6L.0,-7.6M.0,.0L.0,-3.8L.0,-7.6M68.9,.0L68.9,-3.8L68.9,-7.6" stroke="#7e7e7e" fill="none"/></g><g transform="translate(291.787000,540.223100)" id="group23"><path id="shape24" d="M.0,.0L11.0,.0L11.0,115.6L.0,115.6L.0,.0z" fill-rule="nonzero" fill="#ffffff"/><path stroke-width="1" id="shape25" d="M11.0,.0L11.0,115.6M.0,115.6L.0,.0L.0,115.6z" fill-rule="nonzero" stroke="#000000" fill="#ffffff"/></g><g transform="matrix(0.001745,0.999998,-0.999998,0.001745,489.054213,531.580169)" id="group26"><path stroke-width="1" transform="translate(-2.957790,226.818600)" id="shape27" d="M11.0,.0L11.0,84.1M.0,84.1L.0,.0L.0,84.1z" fill-rule="nonzero" stroke="#000000" fill="#ffffff"/></g><path stroke-width="1" transform="translate(503.914500,215.742085)" id="shape28" d="M.0,25.4L.0,.0L11.3,.0C13.5,.0,15.2,.2,16.4,.7C17.6,1.1,18.5,1.9,19.2,3.1C20.0,4.3,20.3,5.5,20.3,6.9C20.3,8.7,19.7,10.3,18.6,11.5C17.4,12.7,15.6,13.5,13.2,13.8C14.0,14.3,14.7,14.7,15.2,15.1C16.2,16.0,17.1,17.1,18.0,18.5L22.4,25.4L18.2,25.4L14.8,20.1C13.8,18.6,13.0,17.4,12.4,16.6C11.7,15.8,11.2,15.2,10.7,14.9C10.2,14.6,9.7,14.4,9.1,14.2C8.7,14.2,8.1,14.1,7.3,14.1L3.4,14.1L3.4,25.4L.0,25.4zM3.4,11.2L10.6,11.2C12.1,11.2,13.3,11.1,14.2,10.7C15.1,10.4,15.7,9.9,16.2,9.2C16.6,8.5,16.8,7.8,16.8,6.9C16.8,5.7,16.4,4.7,15.5,4.0C14.7,3.2,13.3,2.8,11.4,2.8L3.4,2.8L3.4,11.2zM38.0,19.5L41.2,19.9C40.7,21.8,39.8,23.2,38.4,24.3C37.0,25.3,35.3,25.8,33.2,25.8C30.5,25.8,28.3,25.0,26.7,23.3C25.2,21.7,24.4,19.3,24.4,16.4C24.4,13.3,25.2,10.9,26.8,9.1C28.4,7.4,30.4,6.6,33.0,6.6C35.4,6.6,37.4,7.4,39.0,9.1C40.6,10.8,41.3,13.1,41.3,16.2C41.3,16.4,41.3,16.6,41.3,17.0L27.6,17.0C27.7,19.0,28.3,20.6,29.3,21.6C30.3,22.7,31.6,23.3,33.2,23.3C34.3,23.3,35.3,23.0,36.1,22.4C36.9,21.8,37.5,20.8,38.0,19.5zM27.8,14.4L38.1,14.4C37.9,12.9,37.5,11.7,36.9,11.0C35.9,9.7,34.6,9.1,33.0,9.1C31.6,9.1,30.4,9.6,29.4,10.6C28.4,11.5,27.9,12.8,27.8,14.4zM57.4,18.7L60.5,19.1C60.1,21.2,59.3,22.8,57.9,24.0C56.5,25.2,54.8,25.8,52.8,25.8C50.3,25.8,48.3,25.0,46.7,23.3C45.2,21.7,44.4,19.3,44.4,16.3C44.4,14.3,44.8,12.5,45.4,11.1C46.1,9.6,47.1,8.4,48.4,7.7C49.8,7.0,51.2,6.6,52.8,6.6C54.8,6.6,56.4,7.1,57.7,8.1C59.0,9.1,59.8,10.5,60.2,12.4L57.1,12.9C56.8,11.6,56.3,10.7,55.6,10.1C54.9,9.5,54.0,9.1,52.9,9.1C51.4,9.1,50.1,9.7,49.1,10.8C48.1,12.0,47.6,13.7,47.6,16.2C47.6,18.7,48.1,20.5,49.1,21.6C50.0,22.7,51.2,23.3,52.8,23.3C54.0,23.3,55.0,22.9,55.8,22.1C56.7,21.4,57.2,20.2,57.4,18.7zM75.7,19.5L78.9,19.9C78.4,21.8,77.5,23.2,76.1,24.3C74.7,25.3,73.0,25.8,70.9,25.8C68.2,25.8,66.0,25.0,64.5,23.3C62.9,21.7,62.1,19.3,62.1,16.4C62.1,13.3,62.9,10.9,64.5,9.1C66.1,7.4,68.1,6.6,70.7,6.6C73.1,6.6,75.1,7.4,76.7,9.1C78.3,10.8,79.0,13.1,79.0,16.2C79.0,16.4,79.0,16.6,79.0,17.0L65.3,17.0C65.4,19.0,66.0,20.6,67.0,21.6C68.1,22.7,69.3,23.3,70.9,23.3C72.0,23.3,73.0,23.0,73.8,22.4C74.6,21.8,75.2,20.8,75.7,19.5zM65.5,14.4L75.8,14.4C75.6,12.9,75.2,11.7,74.6,11.0C73.6,9.7,72.3,9.1,70.7,9.1C69.3,9.1,68.1,9.6,67.1,10.6C66.1,11.5,65.6,12.8,65.5,14.4zM83.1,32.5L83.1,7.0L85.9,7.0L85.9,9.4C86.6,8.5,87.4,7.8,88.2,7.3C89.0,6.8,90.1,6.6,91.3,6.6C92.8,6.6,94.2,7.0,95.4,7.8C96.6,8.6,97.5,9.7,98.1,11.2C98.8,12.7,99.1,14.3,99.1,16.1C99.1,17.9,98.7,19.6,98.0,21.1C97.4,22.7,96.4,23.8,95.1,24.6C93.8,25.4,92.5,25.8,91.0,25.8C90.0,25.8,89.1,25.6,88.2,25.2C87.4,24.7,86.7,24.2,86.2,23.5L86.2,32.5L83.1,32.5zM85.9,16.3C85.9,18.7,86.4,20.4,87.3,21.6C88.3,22.7,89.5,23.3,90.8,23.3C92.2,23.3,93.4,22.7,94.4,21.5C95.4,20.3,95.9,18.5,95.9,16.0C95.9,13.7,95.4,11.9,94.4,10.8C93.5,9.6,92.3,9.0,91.0,9.0C89.6,9.0,88.5,9.6,87.4,10.9C86.4,12.1,85.9,13.9,85.9,16.3zM109.9,22.6L110.3,25.4C109.4,25.6,108.6,25.6,107.9,25.6C106.8,25.6,105.9,25.5,105.3,25.1C104.7,24.7,104.3,24.3,104.0,23.7C103.7,23.1,103.6,21.9,103.6,20.0L103.6,9.4L101.3,9.4L101.3,7.0L103.6,7.0L103.6,2.4L106.7,.6L106.7,7.0L109.9,7.0L109.9,9.4L106.7,9.4L106.7,20.2C106.7,21.1,106.8,21.6,106.9,21.9C107.0,22.2,107.2,22.4,107.4,22.5C107.7,22.7,108.0,22.7,108.5,22.7C108.8,22.7,109.3,22.7,109.9,22.6zM112.7,3.6L112.7,.0L115.8,.0L115.8,3.6L112.7,3.6zM112.7,25.4L112.7,7.0L115.8,7.0L115.8,25.4L112.7,25.4zM118.9,16.2C118.9,12.8,119.8,10.3,121.7,8.6C123.3,7.3,125.2,6.6,127.5,6.6C130.0,6.6,132.1,7.4,133.7,9.1C135.3,10.7,136.1,13.0,136.1,15.9C136.1,18.3,135.8,20.2,135.1,21.5C134.4,22.9,133.3,23.9,132.0,24.7C130.6,25.4,129.1,25.8,127.5,25.8C124.9,25.8,122.9,25.0,121.3,23.3C119.7,21.7,118.9,19.3,118.9,16.2zM122.1,16.2C122.1,18.6,122.6,20.3,123.6,21.5C124.7,22.7,126.0,23.3,127.5,23.3C129.1,23.3,130.4,22.7,131.4,21.5C132.4,20.3,132.9,18.5,132.9,16.1C132.9,13.8,132.4,12.1,131.4,10.9C130.3,9.8,129.1,9.2,127.5,9.2C126.0,9.2,124.7,9.7,123.6,10.9C122.6,12.1,122.1,13.8,122.1,16.2zM140.0,25.4L140.0,7.0L142.8,7.0L142.8,9.6C144.2,7.6,146.1,6.6,148.7,6.6C149.8,6.6,150.8,6.8,151.7,7.2C152.7,7.6,153.4,8.1,153.8,8.7C154.3,9.4,154.6,10.2,154.8,11.1C154.9,11.6,155.0,12.6,155.0,14.1L155.0,25.4L151.8,25.4L151.8,14.2C151.8,12.9,151.7,12.0,151.5,11.4C151.2,10.7,150.8,10.2,150.2,9.9C149.6,9.5,148.8,9.3,148.0,9.3C146.7,9.3,145.5,9.7,144.6,10.6C143.6,11.4,143.1,13.0,143.1,15.4L143.1,25.4L140.0,25.4z" fill-rule="nonzero" stroke="#101843" fill="#ffffff"/><g transform="matrix(-1.000000,0.000000,0.000000,-1.000000,518.710604,66.696850)" id="shape29"><path d="M.0,.0L91.6,.0L91.6,15.1L.0,15.1L.0,.0zM.0,.0L.0,15.1L-5.0,15.1L-5.0,.0L.0,.0zM91.6,.0L91.6,15.1L96.6,15.1L96.6,.0L91.6,.0zM91.6,.0L91.6,-91.6L86.6,-91.6L86.6,.0L91.6,.0z" fill-rule="nonzero" fill="#ffffff"/><path stroke-width="1" d="M.0,.0C.0,-50.6,41.0,-91.6,91.6,-91.6M.0,.0L.0,15.1L-5.0,15.1L-5.0,.0L.0,.0zM91.6,.0L91.6,15.1L96.6,15.1L96.6,.0L91.6,.0zM91.6,.0L91.6,-91.6L86.6,-91.6L86.6,.0L91.6,.0z" stroke="#303030" fill="none"/></g><g transform="translate(541.396260,551.127370)" id="shape30"><path stroke-width="1" d="M.0,40.0C.0,17.9,17.9,.0,40.0,.0C62.1,.0,80.0,17.9,80.0,40.0C80.0,62.1,62.1,80.0,40.0,80.0C17.9,80.0,.0,62.1,.0,40.0z" fill-rule="nonzero" stroke="#2c2c2c" fill="#ffffff"/></g><g transform="translate(567.940067,390.276848)" id="shape31"><path stroke-width="1" d="M.0,40.0C.0,17.9,17.9,.0,40.0,.0C62.1,.0,80.0,17.9,80.0,40.0C80.0,62.1,62.1,80.0,40.0,80.0C17.9,80.0,.0,62.1,.0,40.0z" fill-rule="nonzero" stroke="#2c2c2c" fill="#ffffff"/></g><g transform="translate(672.051496,362.622062)" id="shape32"><path stroke-width="1" d="M.0,.0L141.2,.0L141.2,292.6L.0,292.6L.0,.0z" fill-rule="nonzero" stroke="#2c2c2c" fill="#ffffff"/></g><path stroke-width="1" transform="matrix(0.000000,-1.000000,1.000000,0.000000,708.773899,601.343613)" id="shape33" d="M.0,36.0L6.5,35.4C6.8,38.0,7.5,40.1,8.6,41.8C9.7,43.4,11.4,44.8,13.8,45.8C16.1,46.8,18.8,47.3,21.7,47.3C24.3,47.3,26.6,47.0,28.6,46.2C30.6,45.4,32.1,44.3,33.1,43.0C34.1,41.6,34.6,40.2,34.6,38.6C34.6,36.9,34.1,35.5,33.2,34.3C32.2,33.1,30.7,32.1,28.5,31.3C27.1,30.7,24.0,29.9,19.3,28.7C14.5,27.6,11.2,26.5,9.3,25.5C6.8,24.2,5.0,22.6,3.8,20.7C2.6,18.8,2.0,16.6,2.0,14.3C2.0,11.6,2.7,9.2,4.2,6.9C5.7,4.7,7.8,2.9,10.7,1.8C13.5,.6,16.7,.0,20.2,.0C24.0,.0,27.4,.6,30.3,1.9C33.2,3.1,35.5,4.9,37.1,7.3C38.7,9.7,39.5,12.4,39.6,15.5L33.1,15.9C32.7,12.7,31.5,10.2,29.5,8.5C27.4,6.9,24.4,6.0,20.5,6.0C16.3,6.0,13.3,6.8,11.4,8.3C9.5,9.8,8.6,11.7,8.6,13.8C8.6,15.7,9.2,17.2,10.6,18.4C11.9,19.6,15.3,20.8,20.9,22.1C26.5,23.3,30.3,24.4,32.3,25.4C35.4,26.8,37.6,28.5,39.0,30.6C40.5,32.8,41.2,35.2,41.2,38.0C41.2,40.7,40.4,43.3,38.8,45.8C37.2,48.2,35.0,50.1,32.0,51.5C29.1,52.8,25.7,53.5,22.0,53.5C17.4,53.5,13.4,52.8,10.3,51.4C7.1,50.1,4.6,48.0,2.8,45.3C1.0,42.5,.0,39.4,.0,36.0zM63.5,46.9L64.5,52.5C62.7,52.9,61.1,53.1,59.7,53.1C57.4,53.1,55.6,52.7,54.3,52.0C53.0,51.3,52.1,50.3,51.6,49.1C51.1,47.9,50.8,45.4,50.8,41.6L50.8,20.1L46.2,20.1L46.2,15.1L50.8,15.1L50.8,5.9L57.2,2.0L57.2,15.1L63.5,15.1L63.5,20.1L57.2,20.1L57.2,42.0C57.2,43.8,57.3,45.0,57.5,45.5C57.7,46.0,58.1,46.4,58.6,46.7C59.1,47.0,59.8,47.2,60.8,47.2C61.5,47.2,62.4,47.1,63.5,46.9zM93.7,48.0C91.3,50.0,89.1,51.4,86.9,52.2C84.7,53.0,82.4,53.4,79.9,53.4C75.8,53.4,72.6,52.4,70.4,50.4C68.2,48.4,67.1,45.8,67.1,42.7C67.1,40.9,67.5,39.2,68.4,37.7C69.2,36.2,70.3,35.0,71.6,34.0C73.0,33.1,74.5,32.4,76.2,32.0C77.4,31.6,79.3,31.3,81.8,31.0C87.0,30.4,90.7,29.7,93.2,28.8C93.2,28.0,93.2,27.4,93.2,27.2C93.2,24.6,92.6,22.8,91.4,21.7C89.8,20.3,87.4,19.5,84.2,19.5C81.2,19.5,79.0,20.1,77.6,21.1C76.1,22.2,75.1,24.0,74.4,26.7L68.2,25.8C68.8,23.2,69.7,21.0,71.0,19.4C72.3,17.8,74.1,16.5,76.6,15.6C79.0,14.7,81.9,14.3,85.1,14.3C88.3,14.3,90.9,14.7,92.9,15.4C94.9,16.2,96.4,17.1,97.3,18.3C98.2,19.4,98.9,20.8,99.3,22.6C99.5,23.7,99.6,25.6,99.6,28.4L99.6,36.9C99.6,42.8,99.7,46.5,100.0,48.1C100.3,49.7,100.8,51.2,101.6,52.6L95.0,52.6C94.3,51.3,93.9,49.7,93.7,48.0zM93.2,33.8C90.9,34.7,87.4,35.5,82.8,36.2C80.2,36.6,78.3,37.0,77.3,37.5C76.2,37.9,75.3,38.6,74.8,39.5C74.2,40.4,73.9,41.4,73.9,42.5C73.9,44.2,74.5,45.6,75.8,46.8C77.1,47.9,79.0,48.5,81.4,48.5C83.9,48.5,86.0,47.9,87.9,46.9C89.9,45.8,91.3,44.3,92.1,42.5C92.8,41.0,93.2,38.9,93.2,36.1L93.2,33.8zM108.7,55.7L114.9,56.6C115.2,58.5,115.9,59.9,117.1,60.8C118.6,62.0,120.8,62.5,123.5,62.5C126.4,62.5,128.7,62.0,130.3,60.8C131.9,59.6,133.0,58.0,133.6,55.8C133.9,54.6,134.0,51.8,134.0,47.7C131.2,51.0,127.8,52.6,123.6,52.6C118.5,52.6,114.5,50.7,111.7,47.0C108.9,43.3,107.5,38.9,107.5,33.7C107.5,30.1,108.1,26.8,109.4,23.8C110.7,20.7,112.6,18.4,115.0,16.8C117.5,15.1,120.4,14.3,123.7,14.3C128.1,14.3,131.8,16.1,134.6,19.6L134.6,15.1L140.5,15.1L140.5,47.5C140.5,53.4,139.9,57.5,138.7,59.9C137.5,62.4,135.6,64.3,133.0,65.7C130.5,67.1,127.3,67.8,123.5,67.8C119.1,67.8,115.5,66.8,112.7,64.8C110.0,62.8,108.6,59.7,108.7,55.7zM114.0,33.2C114.0,38.1,115.0,41.7,116.9,44.0C118.9,46.2,121.3,47.3,124.2,47.3C127.2,47.3,129.6,46.2,131.6,44.0C133.6,41.7,134.5,38.2,134.5,33.4C134.5,28.8,133.5,25.4,131.5,23.0C129.5,20.7,127.0,19.5,124.1,19.5C121.3,19.5,118.9,20.7,116.9,23.0C115.0,25.3,114.0,28.7,114.0,33.2zM176.2,40.5L182.7,41.3C181.7,45.2,179.8,48.2,177.0,50.3C174.2,52.4,170.6,53.4,166.3,53.4C160.8,53.4,156.4,51.8,153.2,48.4C150.0,45.0,148.4,40.3,148.4,34.2C148.4,27.9,150.0,23.0,153.3,19.5C156.5,16.0,160.7,14.3,165.9,14.3C170.9,14.3,175.0,16.0,178.2,19.4C181.4,22.8,183.0,27.6,183.0,33.8C183.0,34.2,182.9,34.7,182.9,35.5L155.0,35.5C155.2,39.6,156.4,42.8,158.5,44.9C160.6,47.1,163.2,48.2,166.3,48.2C168.6,48.2,170.6,47.6,172.3,46.4C173.9,45.2,175.2,43.2,176.2,40.5zM155.3,30.3L176.2,30.3C176.0,27.1,175.2,24.8,173.8,23.2C171.8,20.7,169.2,19.5,166.0,19.5C163.1,19.5,160.6,20.5,158.6,22.4C156.6,24.4,155.5,27.0,155.3,30.3z" fill-rule="nonzero" stroke="#101843" fill="#ffffff"/><g transform="matrix(-1.000000,0.000000,0.000000,-1.000000,309.581000,185.412778)" id="shape34"><path d="M-3.8,.0L241.1,.0L248.6,-3.8L241.1,-7.6L3.8,-7.6L.0,-3.8L-3.8,.0z" fill-rule="nonzero" fill="#7e7e7e"/><path stroke-width="1" d="M-3.8,.0L241.1,.0M241.1,-7.6L3.8,-7.6" stroke="#7e7e7e" fill="none"/></g></g></svg>